<?xml version="1.0" ?><!DOCTYPE svg  PUBLIC '-//W3C//DTD SVG 1.1//EN'  'http://www.w3.org/Graphics/SVG/1.1/DTD/svg11.dtd'><svg enable-background="new 0 0 512 512" height="512px" id="Brain_Storm" version="1.1" viewBox="0 0 512 512" width="512px" xml:space="preserve" xmlns="http://www.w3.org/2000/svg" xmlns:xlink="http://www.w3.org/1999/xlink"><path d="M256,0c141.355,0,256,114.645,256,256S397.355,512,256,512S0,397.355,0,256S114.645,0,256,0  z" fill="#99CC99" id="Background"/><g id="Brain_Storm_1_"><path d="M251.799,400.055c-1.799,9.004-6.004,17.41-12.607,23.711c-8.401,8.703-19.808,13.205-31.812,13.205   c-6.301,0-12.306-1.201-17.707-3.603c-4.502-1.799-8.402-4.201-12.004-7.201c-0.301,0-0.301,0-0.301,0   c-1.799,0.302-3.301,0.302-4.799,0.302c-8.703,0-17.108-3.306-23.113-9.606c-5.699-5.402-9.004-12.904-9.603-20.707   c-8.703-2.101-16.506-6.603-22.506-13.205c-7.506-8.402-12.008-19.21-12.008-30.611c0-1.804,0.301-3.903,0.603-6.004l0,0v-0.302   c-6.904-4.2-12.603-9.903-16.808-16.803c-5.101-8.406-8.104-18.009-8.104-27.912c0-8.104,2.101-16.205,5.707-23.41   c2.397-4.804,5.397-9.302,9.301-13.205c-2.101-2.699-3.603-5.402-5.101-8.104c-2.401-5.402-3.603-11.101-3.603-17.105   c0-9.004,2.699-17.41,8.402-24.611c3.904-5.101,9.004-9.303,15.008-12.004c-0.301-2.101-0.301-3.902-0.301-6.002   c0-9.004,3-17.707,8.402-24.609c4.502-6.002,10.506-10.504,17.406-12.906c1.803-8.404,6.004-15.606,12.31-21.308   c7.201-6.603,16.201-10.504,26.109-10.805c3.599-5.101,8.101-9.603,13.506-12.904c6.899-4.203,14.703-6.303,22.506-6.303   c11.402,0,22.506,4.502,30.615,12.604c4.799,4.803,8.402,10.504,10.502,16.506c2.1-6.002,5.402-11.703,10.205-16.506   c8.101-8.103,19.205-12.604,30.611-12.604c7.803,0,15.606,2.1,22.506,6.303c5.406,3.301,9.904,7.803,13.507,12.904   c9.903,0.301,18.907,4.203,26.41,10.805c6.004,5.701,10.204,12.904,12.004,21.308c6.903,2.402,12.908,6.904,17.41,12.906   c5.401,6.902,8.401,15.605,8.401,24.609c0,2.101,0,3.902-0.301,6.002c6.004,2.701,11.104,6.903,15.008,12.004   c5.699,7.201,8.401,15.607,8.401,24.611c0,6.004-1.2,11.703-3.603,17.105c-1.497,2.702-3,5.405-5.1,8.104   c3.899,3.903,6.903,8.401,9.603,13.205c3.603,7.205,5.401,15.306,5.401,23.41c0,9.903-2.699,19.506-8.101,27.912   c-4.205,6.899-9.903,12.603-16.808,16.803v0.302l0,0c0.302,2.101,0.599,4.2,0.599,6.004c0,11.401-4.201,22.209-12.004,30.611   c-6,6.603-13.804,11.104-22.507,13.205c-0.603,7.803-3.903,15.305-9.606,20.707c-6,6.301-14.406,9.606-23.108,9.606   c-1.498,0-3,0-4.503-0.302c-0.297,0-0.297,0-0.598,0c-3.603,3-7.503,5.402-11.703,7.201c-5.703,2.401-11.707,3.603-17.707,3.603   c-12.009,0-23.712-4.502-32.113-13.205C257.502,417.465,253.297,409.059,251.799,400.055z M251.799,150.958   c0-11.104,4.502-21.308,11.703-28.81c7.502-7.504,17.707-12.006,29.113-12.006c7.803,0,15.004,2.103,21.31,6.004   c5.401,3.301,10.201,8.103,13.502,13.504h0.302c9.903,0,18.907,3.902,25.51,9.904c6.302,5.703,10.502,12.906,12.004,21.308   c6.904,2.402,12.904,6.904,17.406,12.607c5.104,6.603,8.104,14.705,8.104,23.408c0,2.101-0.301,4.203-0.603,6.002   c0,0.6,0,0.901-0.297,1.201c6.603,2.701,12.004,6.904,15.904,12.305c5.104,6.301,8.104,14.406,8.104,23.109   c0,5.703-1.201,11.104-3.603,16.205c-1.498,3.301-3.603,6.305-6,9.004c4.2,4.201,7.803,8.703,10.502,14.104   c3.301,6.903,5.101,14.406,5.101,22.511c0,9.903-2.699,18.907-7.503,26.711c-4.502,6.899-10.502,12.603-17.405,16.804   c0,0.603,0,1.2,0.301,1.803l0,0c0.302,2.101,0.302,3.899,0.302,5.703c0,11.104-4.205,21.306-11.104,28.812   c-6.005,6.603-14.109,11.402-23.41,13.205c0,8.101-3.302,15.603-8.703,21.009c-5.703,5.401-13.205,8.703-21.61,8.703   c-1.498,0-3,0-4.201-0.302c-0.599,0-1.201,0-1.502-0.301c-3.599,3.301-7.804,6.004-12.005,7.803   c-5.401,2.402-11.104,3.603-16.803,3.603c-12.009,0-22.812-4.803-30.314-12.606c-7.803-7.804-12.606-18.606-12.606-30.31   c0-6.306,1.205-12.306,3.603-17.406c1.804-4.205,4.502-8.104,7.502-11.405c-1.799-3-3.301-6.005-4.502-9.306   c-1.498-4.502-2.397-9.302-2.397-14.104c0-6.904,1.498-13.507,4.502-19.205c2.101-4.502,5.101-8.406,8.703-11.707   c-2.703-3.899-5.104-7.804-6.903-12.005c-2.101-5.702-3.302-12.004-3.302-18.606s1.201-13.205,3.899-19.209   c1.804-4.201,4.205-8.402,6.904-12.004c-3.899-3.301-7.201-7.205-9.904-11.703c-3.301-5.703-5.1-12.607-5.1-20.109   c0-7.203,1.799-14.104,5.402-20.109c2.101-3.6,4.799-7.203,8.101-9.904c-4.498-3-8.402-6.901-11.101-11.404   C254.201,167.165,251.799,159.362,251.799,150.958z M210.682,110.142c11.402,0,21.611,4.502,29.109,12.006   c7.205,7.502,12.008,17.705,12.008,28.81c0,8.404-2.703,16.207-6.904,22.81c-3,4.502-6.904,8.404-11.406,11.404   c3.305,2.701,6.004,6.304,8.104,9.904c3.603,6.004,5.401,12.906,5.401,20.109c0,7.502-1.799,14.406-5.1,20.109   c-2.703,4.498-6.004,8.401-9.904,11.703c3,3.603,5.401,7.804,7.201,12.004c2.402,6.004,3.603,12.606,3.603,19.209   s-1.201,12.904-3.301,18.606c-1.803,4.201-3.904,8.105-6.904,12.005c3.603,3.301,6.603,7.205,8.707,11.707   c2.996,5.698,4.498,12.301,4.498,19.205c0,4.803-0.899,9.603-2.397,14.104c-1.205,3.301-2.703,6.306-4.502,9.306   c3,3.301,5.699,7.2,7.498,11.405c2.401,5.101,3.606,11.101,3.606,17.406c0,11.703-4.803,22.506-12.31,30.31   c-7.799,7.804-18.603,12.606-30.31,12.606c-6,0-11.707-1.2-16.804-3.603c-4.502-1.799-8.707-4.502-12.309-7.803   c-0.301,0.301-0.9,0.301-1.498,0.301c-1.201,0.302-2.703,0.302-4.201,0.302c-8.406,0-15.908-3.302-21.611-8.703   c-5.401-5.406-8.703-12.908-8.703-21.009c-9.301-1.803-17.109-6.603-23.109-13.205c-7.205-7.506-11.406-17.707-11.406-28.812   c0-1.804,0-3.603,0.301-5.703l0,0c0.301-0.603,0.301-1.2,0.301-1.803c-6.904-4.201-12.904-9.904-17.406-16.804   c-4.803-7.804-7.506-16.808-7.506-26.711c0-8.104,1.803-15.607,5.104-22.511c2.703-5.401,6.301-9.903,10.502-14.104   c-2.401-2.699-4.502-5.703-6-9.004c-2.402-5.101-3.603-10.502-3.603-16.205c0-8.703,3-16.808,8.104-23.109   c3.9-5.401,9.603-9.604,15.904-12.305c-0.297-0.299-0.297-0.601-0.297-1.201c-0.301-1.799-0.603-3.902-0.603-6.002   c0-8.703,3.004-16.805,8.101-23.408c4.502-5.703,10.506-10.205,17.41-12.607c1.502-8.401,6.004-15.604,12.004-21.308   c6.603-6.002,15.606-9.904,25.51-9.904h0.297c3.305-5.401,8.108-10.203,13.506-13.504   C195.674,112.245,202.879,110.142,210.682,110.142z M251.799,383.85c0.598-3.603,1.498-7.201,3-10.502   c1.799-3.603,4.201-7.205,6.904-10.507c-1.502-2.698-3-5.401-3.904-8.104c-1.799-4.799-2.698-9.903-2.698-15.004   c0-7.201,1.799-14.104,4.799-20.109c2.104-4.2,4.502-7.803,7.804-11.104c-2.397-3.598-4.502-7.2-6-11.104   c-2.402-6-3.603-12.603-3.603-19.205c0-6.903,1.502-13.506,4.201-20.108c1.502-3.9,3.602-7.502,6.004-10.804   c-3.603-3.004-6.302-6.903-8.703-10.803c-3.603-6.603-5.703-13.808-5.703-21.31s2.101-14.705,5.703-21.308   c1.799-3.002,4.201-6.004,6.603-8.705c-3.603-2.701-6.904-6.301-9.606-10.203c-2.097-3.002-3.603-6.603-4.799-9.904   c-1.201,3.301-3.004,6.901-5.104,9.904c-2.699,3.901-6,7.502-9.603,10.203c2.699,2.701,4.803,5.703,6.602,8.705   c3.603,6.603,5.703,13.806,5.703,21.308s-1.799,14.707-5.703,21.31c-2.1,3.9-5.1,7.799-8.703,10.803   c2.401,3.301,4.502,6.904,6.305,10.804c2.397,6.603,3.9,13.205,3.9,20.108c0,6.603-1.201,13.205-3.603,19.205   c-1.502,3.904-3.603,7.507-6.004,11.104c3.306,3.302,5.707,6.904,7.808,11.104c2.996,6.005,4.799,12.908,4.799,20.109   c0,5.101-0.9,10.205-2.699,15.004c-0.904,2.703-2.101,5.406-3.904,8.104c3,3.302,5.101,6.904,6.904,10.507   C250,376.648,250.896,380.247,251.799,383.85z" fill="#4E5A62"/><path d="M193.276,327.427c-0.301,0-0.599,0.302-0.9,0.603c-0.603,0.297-1.201,0.599-2.101,0.297   c-0.301,0-0.301-0.297-0.602-0.297c-3,2.699-6.904,4.502-10.804,5.703c0,0,0,0-0.301,0c-1.498,0.297-3.301,0.598-5.1,0.598   c-17.41,0-31.511-14.104-31.511-31.51c0-7.205,2.397-14.109,6.9-19.808c0-0.904,0-2.104,0-3.306   c0-14.703,9.603-27.606,23.711-31.51c0,0,0,0,0.301,0c1.799-0.297,3.599-0.599,5.398-0.599c6.602,0,12.908,2.101,18.309,5.699   c0-0.301,0.301-0.301,0.301-0.598c0.9-0.598,2.101-0.899,3-0.301c3.301-3,7.201-5.402,11.703-6.899h0.301   c1.498-0.301,2.703-0.301,4.201-0.301c8.703,0,16.808,4.201,22.209,11.104c4.201-1.799,9.004-2.101,13.506-0.904   c6,1.502,10.803,5.703,13.506,11.104c3.301-1.196,6.899-1.498,10.502-0.599c1.799,0.599,3.603,1.503,5.401,2.402   c2.402-0.302,4.804-0.302,7.205,0.301c7.502,2.101,12.603,8.703,12.904,16.205v0.302c-0.302,0.899-0.302,1.799-0.603,2.698   c-0.298,1.201-0.599,2.101-1.197,3.302c0.298,0.603,0.298,1.2,0,1.803c1.197,1.8,1.8,3.599,1.8,5.699c0,0.301,0,0.301,0,0.603   c0,0.599,0,0.899-0.302,1.2c-0.301,1.201-0.599,2.101-1.2,3c0.301,0.9,0.301,1.503,0,2.101c0.899,2.101,1.2,4.502,1.2,6.904v0.301   c0,0.899-0.301,2.101-0.599,3c-1.2,5.101-4.502,9.302-9.004,11.703c-4.201,2.703-9.603,3.302-14.707,2.101   c-3.899-1.201-7.502-3.599-10.205-6.899c-0.599,0-0.899-0.302-1.498-0.302c-4.502-1.2-8.405-3.903-11.104-7.502   c-0.301-0.301-0.301-0.301-0.603-0.301c-0.301,0-0.598,0-0.899-0.302c-5.101,4.804-12.606,6.603-19.209,4.804   c-0.599-0.302-1.197-0.302-1.498-0.603c-2.101,1.502-4.502,2.401-6.904,3.301h-0.301c-1.498,0.302-2.699,0.302-4.201,0.302   c-2.101,0-4.502-0.302-6.603-0.899c0,0,0,0,0,0.301c-0.599,0.599-1.498,0.899-2.402,0.899c-0.297-0.301-0.598-0.301-0.896-0.301   c-2.401,2.702-5.104,4.803-8.707,6.004c0,0.297-0.297,0.297-0.297,0.297c-0.904,0-1.502,0-2.101,0   C197.18,328.326,195.075,328.029,193.276,327.427z M211.582,319.623c-0.598,0-1.498-0.297-2.401-0.598   c-1.799,3.301-4.799,5.401-8.101,6.603c-0.603,0.301-1.201,0.301-1.799,0.301c-2.402,0-4.502-0.603-6.603-1.502   c-0.603,0.599-1.205,0.899-1.803,1.502c-0.599-0.301-0.899-0.301-1.502-0.603c-3.297,2.703-6.904,4.804-11.104,6.004   c-1.498,0.298-3,0.298-4.799,0.298c-15.908,0-28.812-12.904-28.812-28.808c0-7.205,2.398-13.808,6.9-18.908   c-0.297-1.502-0.297-2.703-0.297-4.205c0-13.804,9.301-25.506,21.908-29.109c1.502-0.301,3.301-0.301,5.101-0.301   c6.903,0,13.506,2.402,18.61,6.302c0.599-0.599,1.197-1.201,1.799-2.097c0.603,0.599,1.201,0.896,1.799,1.197   c3.004-3.598,7.205-6.301,11.707-7.799c1.197,0,2.699-0.301,3.899-0.301c9.004,0,16.808,4.799,21.31,12.004   c3.904-2.401,9-3.301,13.804-1.804c6.305,1.502,10.807,6.306,12.908,12.005c3-1.8,7.201-2.397,11.104-1.498   c2.101,0.599,3.899,1.498,5.402,2.698c2.1-0.598,4.799-0.598,7.2,0.302c6.302,1.502,10.804,7.205,10.804,13.506   c0,0.899,0,1.498-0.297,2.401c-0.302,1.498-0.904,2.699-1.804,3.9c0.301,0.301,0.301,0.603,0.603,0.899   c-0.302,0.301-0.302,0.903-0.603,1.201c1.201,1.502,2.101,3.602,2.401,5.702c0,0.302,0,0.603-0.301,0.9   c-0.297,1.2-0.899,2.401-1.8,3.602c0.302,0.302,0.599,0.599,0.599,1.201c0,0.302-0.297,0.302-0.599,0.599   c1.201,2.401,1.8,4.803,1.8,7.205c0,0.899-0.297,1.799-0.599,2.698c-2.401,9.005-11.405,14.406-20.41,12.009   c-4.2-1.201-7.502-3.603-9.603-6.904c-0.899,0-1.502-0.301-2.401-0.301c-4.201-1.201-7.804-3.899-10.205-7.502   c-0.598,0-0.896-0.302-1.498-0.302c-0.603-0.301-1.502-0.301-2.1-0.598c-4.502,4.502-11.406,6.602-18.008,4.799   c-0.9,0-1.799-0.297-2.402-0.599c-2.101,1.498-4.803,2.699-7.201,3.603c-1.201,0-2.699,0.297-3.904,0.297   c-2.699,0-5.101-0.598-7.502-1.2C212.485,318.724,212.184,319.326,211.582,319.623z" fill="#4E5A62"/><path d="M211.582,319.623c-0.598,0-1.498-0.297-2.401-0.598c-1.799,3.301-4.799,5.401-8.101,6.603   c-0.603,0.301-1.201,0.301-1.799,0.301c-2.402,0-4.502-0.603-6.603-1.502c-0.603,0.599-1.205,0.899-1.803,1.502   c-0.599-0.301-0.899-0.301-1.502-0.603c-3.297,2.703-6.904,4.804-11.104,6.004c-1.498,0.298-3,0.298-4.799,0.298   c-15.908,0-28.812-12.904-28.812-28.808c0-7.205,2.398-13.808,6.9-18.908c-0.297-1.502-0.297-2.703-0.297-4.205   c0-13.804,9.301-25.506,21.908-29.109c1.502-0.301,3.301-0.301,5.101-0.301c6.903,0,13.506,2.402,18.61,6.302   c0.599-0.599,1.197-1.201,1.799-2.097c0.603,0.599,1.201,0.896,1.799,1.197c3.004-3.598,7.205-6.301,11.707-7.799   c1.197,0,2.699-0.301,3.899-0.301c9.004,0,16.808,4.799,21.31,12.004c3.904-2.401,9-3.301,13.804-1.804   c6.305,1.502,10.807,6.306,12.908,12.005c3-1.8,7.201-2.397,11.104-1.498c2.101,0.599,3.899,1.498,5.402,2.698   c2.1-0.598,4.799-0.598,7.2,0.302c6.302,1.502,10.804,7.205,10.804,13.506c0,0.899,0,1.498-0.297,2.401   c-0.302,1.498-0.904,2.699-1.804,3.9c0.301,0.301,0.301,0.603,0.603,0.899c-0.302,0.301-0.302,0.903-0.603,1.201   c1.201,1.502,2.101,3.602,2.401,5.702c0,0.302,0,0.603-0.301,0.9c-0.297,1.2-0.899,2.401-1.8,3.602   c0.302,0.302,0.599,0.599,0.599,1.201c0,0.302-0.297,0.302-0.599,0.599c1.201,2.401,1.8,4.803,1.8,7.205   c0,0.899-0.297,1.799-0.599,2.698c-2.401,9.005-11.405,14.406-20.41,12.009c-4.2-1.201-7.502-3.603-9.603-6.904   c-0.899,0-1.502-0.301-2.401-0.301c-4.201-1.201-7.804-3.899-10.205-7.502c-0.598,0-0.896-0.302-1.498-0.302   c-0.603-0.301-1.502-0.301-2.1-0.598c-4.502,4.502-11.406,6.602-18.008,4.799c-0.9,0-1.799-0.297-2.402-0.599   c-2.101,1.498-4.803,2.699-7.201,3.603c-1.201,0-2.699,0.297-3.904,0.297c-2.699,0-5.101-0.598-7.502-1.2   C212.485,318.724,212.184,319.326,211.582,319.623z" fill="#6C6E70"/><path d="M175.569,134.452c1.201,0,2.101,0,3,0.301c6-11.705,18.31-19.807,32.113-19.807   c20.109,0,36.013,16.205,36.013,36.012c0,15.308-9.004,28.211-22.209,33.613c10.506,6.004,17.707,17.707,17.707,30.613   c0,13.205-6.899,24.607-17.406,30.912c8.104,8.104,13.205,19.506,13.205,32.113c0,12.004-4.502,22.808-12.004,30.912   c9.004,7.201,15.008,18.009,15.008,30.611c0,9.004-3.305,17.405-8.406,23.711c7.804,6.899,12.607,17.104,12.607,28.511   c0,21.008-16.808,38.113-37.816,38.113c-10.804,0-20.707-4.503-27.611-11.703c-2.402,0.598-4.799,0.899-7.201,0.899   c-14.108,0-25.514-11.406-25.514-25.511c0-1.2,0-2.401,0.301-3.603c-19.506-1.498-34.812-18.004-34.812-37.812   c0-3.301,0.603-6.903,1.498-9.903c-15.306-7.507-25.808-23.109-25.808-41.117c0-15.009,7.205-27.912,18.008-36.314   c-7.205-6.004-12.008-15.305-12.008-25.51c0-15.305,10.808-28.51,24.912-32.113c-1.201-3.301-1.799-6.902-1.799-10.504   c0-15.606,10.803-28.51,25.209-32.113C144.059,147.657,158.159,134.452,175.569,134.452z" fill="#FF8A8A"/><path d="M327.729,134.452c-0.9,0-2.101,0-3.001,0.301c-6.004-11.705-18.008-19.807-32.112-19.807   c-19.808,0-36.017,16.205-36.017,36.012c0,15.308,9.004,28.211,22.209,33.613c-10.502,6.004-17.707,17.707-17.707,30.613   c0,13.205,6.903,24.607,17.41,30.912c-8.104,8.104-13.205,19.506-13.205,32.113c0,12.004,4.498,22.808,12.004,30.912   c-9.004,7.201-15.008,18.009-15.008,30.611c0,9.004,3.301,17.405,8.405,23.711c-7.804,6.899-12.606,17.104-12.606,28.511   c0,21.008,17.108,38.113,38.117,38.113c10.502,0,20.405-4.503,27.31-11.703c2.401,0.598,4.799,0.899,7.201,0.899   c14.104,0,25.51-11.406,25.51-25.511c0-1.2,0-2.401-0.301-3.603c19.51-1.498,34.815-18.004,34.815-37.812   c0-3.301-0.603-6.903-1.502-9.903c15.306-7.507,25.812-23.109,25.812-41.117c0-15.009-7.205-27.912-18.008-36.314   c7.205-6.004,12.004-15.305,12.004-25.51c0-15.305-10.502-28.51-24.908-32.113c1.201-3.301,1.8-6.902,1.8-10.504   c0-15.606-10.804-28.51-25.21-32.113C359.238,147.657,345.134,134.452,327.729,134.452z" fill="#FF8A8A"/><path d="M175.569,129.65h0.297c3.305-5.401,8.108-10.203,13.506-13.504c6.301-3.902,13.506-6.004,21.31-6.004   c11.402,0,21.611,4.502,29.109,12.006c7.205,7.502,12.008,17.705,12.008,28.81c0,8.404-2.703,16.207-6.904,22.81   c-3,4.502-6.904,8.404-11.406,11.404c3.305,2.701,6.004,6.304,8.104,9.904c3.603,6.004,5.401,12.906,5.401,20.109   c0,7.502-1.799,14.406-5.1,20.109c-2.703,4.498-6.004,8.401-9.904,11.703c3,3.603,5.401,7.506,7.201,12.004   c2.402,6.004,3.603,12.606,3.603,19.209s-1.201,12.904-3.301,18.606c-1.803,4.201-3.904,8.105-6.904,12.005   c3.603,3.301,6.603,7.205,8.707,11.707c2.996,5.698,4.498,12.301,4.498,19.205c0,4.803-0.899,9.603-2.397,14.104   c-1.205,3.301-2.703,6.306-4.502,9.306c3,3.301,5.699,7.2,7.498,11.405c2.401,5.101,3.606,11.101,3.606,17.406   c0,11.703-4.803,22.506-12.31,30.31c-7.799,7.804-18.603,12.606-30.31,12.606c-6,0-11.707-1.2-16.804-3.603   c-4.502-1.799-8.707-4.502-12.309-7.803c-0.301,0.301-0.9,0.301-1.498,0.301c-1.201,0.302-2.703,0.302-4.201,0.302   c-8.406,0-15.908-3.302-21.611-8.703c-5.401-5.406-8.703-12.908-8.703-21.009c-9.301-1.803-17.109-6.603-23.109-13.205   c-7.205-7.506-11.406-17.707-11.406-28.812c0-1.804,0-3.603,0.301-5.703l0,0c0.301-0.603,0.301-1.2,0.301-1.803   c-6.904-4.201-12.904-9.904-17.406-16.804c-4.803-7.804-7.506-17.108-7.506-26.711c0-8.104,1.803-15.607,5.104-22.511   c2.703-5.401,6.301-9.903,10.502-14.104c-2.401-2.699-4.502-5.703-6-9.004c-2.402-5.101-3.603-10.502-3.603-16.205   c0-8.703,3-16.808,8.104-23.109c3.9-5.401,9.603-9.604,15.904-12.305c-0.297-0.299-0.297-0.601-0.297-1.201   c-0.301-1.799-0.603-3.902-0.603-6.002c0-8.703,3.004-16.805,8.101-23.408c4.502-5.703,10.506-10.205,17.41-12.607   c1.502-8.401,6.004-15.604,12.004-21.308C156.661,133.552,165.665,129.65,175.569,129.65z M176.77,139.554   c0-0.299-0.603-0.299-1.201-0.299c-7.201,0-14.104,3-19.209,7.502c-4.803,4.801-8.402,11.104-9.004,18.308l-0.301,3.6l-3.297,0.902   c-6.301,1.5-11.707,5.101-15.306,9.904c-3.903,4.801-6.004,10.803-6.004,17.406c0,1.5,0,3.301,0.301,4.502   c0.297,1.5,0.598,3.002,0.899,4.502l1.799,4.801l-5.101,1.5c-6.004,1.502-11.402,5.103-15.305,9.902   c-3.603,4.803-5.703,10.807-5.703,17.41c0,4.201,0.899,8.406,2.402,12.004c1.799,3.603,4.502,7.205,7.502,9.603l4.799,3.903   l-4.799,3.9c-5.101,3.602-9.004,8.702-12.004,14.405c-2.703,5.401-4.201,11.406-4.201,18.009c0,7.803,2.402,15.305,6.301,21.606   c3.9,6.306,9.904,11.707,16.808,15.008l3.603,1.8l-1.205,3.903c-0.297,1.197-0.598,2.699-0.896,4.201l0,0   c0,1.498-0.301,3-0.301,4.502c0,8.703,3.297,16.506,8.703,22.507c5.401,6.004,13.205,9.903,21.606,10.506l5.104,0.599l-0.602,4.803   c-0.301,0.599-0.301,0.899-0.301,1.498c0,0.603,0,0.903,0,1.502c0,5.703,2.401,10.804,6.004,14.707c3.904,3.603,9.004,6,14.707,6   c0.9,0,2.101,0,3-0.297c0.9,0,1.799-0.301,3-0.603l2.703-0.899l2.101,2.101c3,3.301,6.603,6.004,10.803,7.803   c3.899,1.503,8.402,2.402,13.205,2.402c9.004,0,17.406-3.603,23.41-9.603c6.004-6.005,9.603-14.406,9.603-23.41   c0-4.804-0.9-9.606-3-13.507c-1.803-4.502-4.502-8.104-8.104-11.405l-3.598-3l3-3.603c2.397-3,4.201-6.302,5.703-9.904   c1.197-3.301,1.799-6.899,1.799-10.803c0-5.402-1.201-10.502-3.603-15.005c-2.1-4.502-5.401-8.405-9.603-11.707l-4.201-3   l3.598-3.899c3.306-3.903,6.004-8.104,8.105-12.907c1.803-4.503,2.699-9.603,2.699-15.005c0-5.401-1.197-10.803-2.996-15.606   c-2.101-4.804-5.104-9.306-9.004-13.205l-4.201-4.201l5.097-3.301c4.803-2.703,8.707-6.603,11.406-11.406   c2.401-4.502,3.903-9.603,3.903-15.306c0-5.402-1.502-10.803-4.205-15.306c-2.699-4.502-6.603-8.403-11.104-11.406l-8.402-4.801   l9.004-3.6c5.703-2.402,10.502-6.603,14.109-11.705c3.297-4.801,5.101-10.806,5.101-17.408c0-8.401-3.603-16.205-9.004-21.908   c-5.703-5.703-13.506-9.004-22.209-9.004c-6.004,0-11.402,1.502-16.205,4.502c-4.803,3.002-9.004,7.203-11.406,12.305l-1.498,3   l-3.305-0.299C177.967,139.554,177.368,139.554,176.77,139.554L176.77,139.554z" fill="#E67C7C"/><path d="M327.729,129.65h-0.302c-3.301-5.401-8.101-10.203-13.502-13.504c-6.306-3.902-13.507-6.004-21.31-6.004   c-11.406,0-21.611,4.502-29.113,12.006c-7.201,7.502-11.703,17.705-11.703,28.81c0,8.404,2.401,16.207,6.904,22.81   c2.698,4.502,6.603,8.404,11.101,11.404c-3.302,2.701-6,6.304-8.101,9.904c-3.603,6.004-5.402,12.906-5.402,20.109   c0,7.502,1.799,14.406,5.1,20.109c2.703,4.498,6.005,8.401,9.904,11.703c-2.699,3.603-5.101,7.506-6.904,12.004   c-2.698,6.004-3.899,12.606-3.899,19.209s1.201,12.904,3.302,18.606c1.799,4.201,4.2,8.105,6.903,12.005   c-3.603,3.301-6.603,7.205-8.703,11.707c-3.004,5.698-4.502,12.301-4.502,19.205c0,4.803,0.899,9.603,2.397,14.104   c1.201,3.301,2.703,6.306,4.502,9.306c-3,3.301-5.698,7.2-7.502,11.405c-2.397,5.101-3.603,11.101-3.603,17.406   c0,11.703,4.804,22.506,12.606,30.31c7.503,7.804,18.306,12.606,30.314,12.606c5.698,0,11.401-1.2,16.803-3.603   c4.201-1.799,8.406-4.502,12.005-7.803c0.301,0.301,0.903,0.301,1.502,0.301c1.201,0.302,2.703,0.302,4.201,0.302   c8.405,0,15.907-3.302,21.61-8.703c5.401-5.406,8.703-12.908,8.703-21.009c9.301-1.803,17.405-6.603,23.41-13.205   c6.899-7.506,11.104-17.707,11.104-28.812c0-1.804,0-3.603-0.302-5.703l0,0c-0.301-0.603-0.301-1.2-0.301-1.803   c6.903-4.201,12.903-9.904,17.405-16.804c4.804-7.804,7.503-17.108,7.503-26.711c0-8.104-1.8-15.607-5.101-22.511   c-2.699-5.401-6.302-9.903-10.502-14.104c2.397-2.699,4.502-5.703,6-9.004c2.401-5.101,3.603-10.502,3.603-16.205   c0-8.703-3-16.808-8.104-23.109c-3.9-5.401-9.302-9.604-15.904-12.305c0.297-0.299,0.297-0.601,0.297-1.201   c0.302-1.799,0.603-3.902,0.603-6.002c0-8.703-3-16.805-8.104-23.408c-4.502-5.703-10.502-10.205-17.406-12.607   c-1.502-8.401-5.702-15.604-12.004-21.308C346.636,133.552,337.632,129.65,327.729,129.65z M326.527,139.554   c0-0.299,0.603-0.299,1.201-0.299c7.502,0,14.104,3,19.209,7.502c5.101,4.801,8.401,11.104,9,18.308l0.301,3.6l3.302,0.902   c6.301,1.5,11.707,5.101,15.606,9.904c3.603,4.801,5.703,10.803,5.703,17.406c0,1.5,0,3.301-0.302,4.502   c-0.301,1.5-0.598,3.002-0.899,4.502l-1.799,4.801l5.101,1.5c6.004,1.502,11.405,5.103,15.305,9.902   c3.603,4.803,5.703,10.807,5.703,17.41c0,4.201-0.899,8.406-2.401,12.004c-1.8,3.603-4.502,7.205-7.502,9.603l-4.804,3.903   l4.804,3.9c5.101,3.602,9.004,8.702,12.004,14.405c2.703,5.401,4.201,11.406,4.201,18.009c0,7.803-2.402,15.305-6.302,21.606   c-3.903,6.306-9.903,11.707-16.808,15.008l-3.603,1.8l1.201,3.903c0.301,1.197,0.603,2.699,0.899,4.201l0,0   c0,1.498,0.302,3,0.302,4.502c0,8.703-3.302,16.506-8.703,22.507c-5.402,6.004-13.205,9.903-21.606,10.506l-5.105,0.599   l0.603,4.803c0.302,0.599,0.302,0.899,0.302,1.498c0,0.603,0,0.903,0,1.502c0,5.703-2.401,10.804-6.004,14.707   c-3.904,3.603-9.005,6-14.707,6c-0.9,0-2.101,0-3-0.297c-0.9,0-1.8-0.301-2.703-0.603l-3-0.899l-2.101,2.101   c-3,3.301-6.603,6.004-10.804,7.803c-3.903,1.503-8.405,2.402-12.903,2.402c-9.306,0-17.707-3.603-23.712-9.603   c-6.004-6.005-9.603-14.406-9.603-23.41c0-4.804,1.201-9.606,3-13.507c1.8-4.502,4.503-8.104,8.105-11.405l3.598-3l-3-3.603   c-2.401-3-4.2-6.302-5.401-9.904c-1.502-3.301-2.101-6.899-2.101-10.803c0-5.402,1.201-10.502,3.603-15.005   c2.101-4.502,5.703-8.405,9.603-11.707l4.201-3l-3.603-3.899c-3.302-3.903-6-8.104-8.101-12.907   c-1.804-4.503-2.703-9.603-2.703-15.005c0-5.401,1.201-10.803,3-15.606c2.104-4.804,5.104-9.306,9.004-13.205l4.503-4.201   l-5.402-3.301c-4.799-2.703-8.703-6.603-11.104-11.406c-2.698-4.502-4.201-9.603-4.201-15.306c0-5.402,1.503-10.803,4.201-15.306   c2.703-4.502,6.603-8.403,11.104-11.406l8.406-4.801l-9.004-3.6c-5.703-2.402-10.507-6.603-14.109-11.705   c-3.301-4.801-5.101-10.806-5.101-17.408c0-8.401,3.603-16.205,9.005-21.908c5.702-5.703,13.506-9.004,22.209-9.004   c6,0,11.401,1.502,16.205,4.502c4.803,3.002,9.004,7.203,11.405,12.305l1.498,3l3.302-0.299   C325.326,139.554,325.929,139.554,326.527,139.554L326.527,139.554z" fill="#E67C7C"/><path d="M185.473,325.326l52.519,49.82c0.603,0.899,0.904,1.799,0.603,2.703c-0.301,0.899-1.201,1.196-2.101,1.196   l-18.908,0.603l36.313,37.816c0.603,0.899,0.603,2.1,0,3c-0.603,0.899-1.799,1.2-2.703,0.598l-96.034-51.017   c-0.904-0.301-1.205-1.502-1.205-2.401c0.301-1.201,1.205-1.804,2.402-1.804l28.812,0.302l-66.924-50.72   c-0.599-0.599-0.9-1.498-0.599-2.699c0.297-0.903,1.197-1.502,2.101-1.502h33.012l-59.724-53.121   c-0.603-0.599-0.904-1.799-0.603-2.703c0.301-0.896,1.201-1.498,2.101-1.197l54.92,1.498c0.603,0,1.205,0.301,1.502,0.603   l66.029,64.226c0.896,0.599,0.896,1.498,0.599,2.397c-0.301,0.899-1.201,1.502-2.104,1.502L185.473,325.326z" fill="#4E5A62"/><polygon fill="#FFF212" id="path4828" points="149.456,258.101 215.481,322.326 179.77,323.527 236.494,376.945 212.485,377.247    252.101,418.962 156.36,368.243 192.075,368.544 119.749,313.623 158.762,313.322 94.536,256.301  "/><path d="M357.138,253.598l35.113,0.301c0.903,0,1.804,0.603,2.104,1.498c0.297,0.904,0,1.804-0.603,2.401   l-70.226,53.423l30.31-0.301c1.201,0,2.101,0.603,2.401,1.803c0.302,0.899-0.301,2.101-1.2,2.397l-100.536,53.423   c-0.904,0.599-2.104,0.301-2.703-0.599c-0.904-0.903-0.603-2.104,0-2.703l38.113-40.217l-20.108-0.298   c-0.899,0-1.498-0.602-1.8-1.502c-0.598-0.899-0.301-1.799,0.302-2.401l55.519-52.519l-32.108-0.899   c-0.904,0-1.503-0.603-1.804-1.503c-0.599-0.899-0.297-1.799,0.301-2.401l69.327-67.226c0.603-0.601,0.899-0.601,1.502-0.601   l57.623-1.799c0.899,0,1.8,0.299,2.101,1.199c0.297,0.902,0,2.103-0.603,2.703L357.138,253.598z" fill="#4E5A62"/><polygon fill="#FFF212" id="path4828_0" points="361.042,197.778 292.013,265.004 329.23,266.205 270.104,322.326 295.017,322.925    253.598,366.745 353.837,313.322 316.623,313.623 392.251,256 351.439,256 418.665,195.977  "/><path d="M278.808,140.755c-0.297,0-0.599-0.301-1.201-0.301c-0.899,1.502-2.397,2.701-4.2,3.301   c-0.302,0-0.302,0-0.599,0c-1.201,0-2.401,0-3.302-0.601c-0.301,0.301-0.602,0.601-0.899,0.601c-0.301,0-0.603,0-0.903-0.299   c-1.498,1.5-3.599,2.701-5.699,3.301c-0.603,0-1.502,0-2.401,0c-6.904,0-12.908-5.103-14.104-12.004   c-1.502,0.299-3.004,0.601-4.201,0.601c-0.903,0-1.803,0-2.401-0.301c-2.101-0.6-3.904-1.5-5.707-3   c-0.297,0.299-0.599,0.299-0.896,0.299c-0.301,0-0.603-0.299-0.904-0.601c-0.899,0.301-2.101,0.601-3,0.601   c-0.297,0-0.599,0-0.899,0c-1.799-0.601-3.301-1.801-4.201-3.301c-0.603,0-0.904,0.301-1.205,0.301   c-0.297-0.301-0.595-0.601-0.595-0.601c-1.205,0.299-2.401,0.601-3.903,0.601c-0.599,0-1.201-0.301-1.804-0.301   c-1.196-0.299-2.401-0.9-3.297-1.5c-0.603,0.299-1.205,0.6-1.803,0.899c-0.599,0-1.201,0-1.803,0c-0.896,0-2.101,0-2.996-0.299   c-0.904,4.801-5.104,8.402-10.209,8.402c-0.297,0-0.896,0-1.498,0c-1.498-0.598-2.703-1.199-3.9-2.1c-0.301,0-0.602,0-0.602,0   c-0.301,0-0.603-0.299-0.603-0.299c-0.896,0.299-1.498,0.299-2.397,0.299c-0.301,0-0.301,0-0.599,0   c-1.205-0.299-2.401-1.201-3.004-2.4c-0.301,0.299-0.603,0.299-0.9,0.299c0-0.299-0.301-0.299-0.301-0.601   c-0.899,0.301-1.799,0.601-2.699,0.601c-0.603,0-0.903,0-1.502-0.299c-3.603-0.902-6.305-4.502-6.305-8.404   c0-1.801,0.301-3.301,1.205-4.502c-0.603-1.201-0.903-2.402-0.903-3.601c0-2.401,1.205-4.803,2.703-6.303   c-3.004-2.101-5.104-5.703-5.104-9.604c0-6.301,5.104-11.103,11.406-11.103c2.402,0,4.803,0.598,6.904,2.1   c1.799-2.1,4.803-3.301,8.101-3.301c6.004,0,11.104,5.101,11.104,11.404c0,0.601,0,1.201,0,1.801   c0.603-0.301,1.205-0.6,1.803-0.901c2.101-3.902,6.301-6.603,11.104-6.603c0.599,0,1.502,0,2.101,0   c2.402,0.901,4.201,2.401,6.004,4.203c0.301-0.301,0.301-0.6,0.599-0.6c0.598,0.299,0.899,0.6,1.201,0.899   c2.402-2.101,5.703-3.301,9.306-3.301c0.896,0,1.799,0,2.401,0.301c1.197,0.299,2.101,0.601,2.996,1.199c0-0.899,0-1.799,0-2.701   c0-8.703,6.904-15.906,15.908-15.906c4.502,0,8.405,1.801,11.405,4.803c2.699-2.103,6-3.301,9.603-3.301   c9.004,0,16.205,7.201,16.205,15.906c0,5.701-3,10.803-7.502,13.504c2.401,2.401,3.903,5.401,3.903,9.004   c0,1.801-0.301,3.601-1.2,5.103c1.2,1.799,1.498,3.902,1.498,6.002c0,6.002-3.599,10.804-9,12.304   c-0.603,0-1.201,0.301-1.804,0.301c-1.498,0-2.698-0.301-3.899-0.601C279.41,140.454,279.108,140.454,278.808,140.755z    M201.08,108.941v-0.299v-0.299C201.08,108.642,201.08,108.941,201.08,108.941z M252.397,107.743c0-0.301,0-0.301,0-0.601l0,0   C252.397,107.142,252.397,107.441,252.397,107.743z" fill="#727376"/><path d="M150.059,139.554c-0.301,0.299-0.899,0.299-1.201,0.299c-0.599-1.199-2.101-2.399-3.603-2.701   c0-0.299-0.301-0.299-0.599-0.299c-0.899,0-2.1,0.299-3,0.601c0,0-0.301-0.301-0.603-0.601c-0.301,0.299-0.602,0.299-0.899,0.299   c-1.201-1.199-3-2.101-4.799-2.4c-0.603-0.301-1.205-0.301-1.803-0.301c-6.904,0-12.606,5.703-12.606,12.604   c0,3.002,1.205,6.004,3.004,8.104c-0.301,0.601-0.301,1.201-0.301,1.801c0,6.002,4.201,11.103,9.603,12.604   c0.599,0.299,1.502,0.299,2.104,0.299c3.297,0,6-1.201,8.101-2.701c0.301,0.299,0.603,0.601,0.899,0.601   c0.301,0,0.599-0.301,0.599-0.301c1.506,1.502,3.305,2.703,5.406,3.301c0.301,0,0.899,0.301,1.498,0.301   c3.904,0,7.506-2.101,9.305-5.402c1.799,1.201,3.9,1.5,6,0.9c2.703-0.601,4.803-2.701,5.707-5.402c1.197,0.9,2.996,1.201,4.799,0.9   c0.899-0.299,1.502-0.9,2.101-1.201c1.201,0.301,2.1,0.301,3.301,0c2.703-0.899,4.502-3.301,4.803-6.002   c0-0.299-0.301-0.601-0.301-0.899c0-0.9-0.301-1.5-0.603-1.801c0-0.299,0-0.299,0.301-0.299c-0.301-0.301-0.301-0.601-0.598-0.601   c0.899-0.901,1.201-1.5,1.201-2.701c0,0,0,0,0-0.301c-0.301-0.601-0.603-0.899-0.904-1.5c0,0,0.301-0.301,0.301-0.601   c0,0-0.301,0-0.301-0.299c0.603-0.902,0.904-2.103,0.904-3.002c-0.301-0.299-0.301-0.899-0.301-1.201   c-1.201-3.902-5.104-6.301-9.004-5.103c-1.799,0.301-3.301,1.502-4.201,2.703c-0.301,0.299-0.603,0.299-0.899,0.299   c-1.803,0.601-3.603,1.801-4.502,3.301c-0.301,0-0.301,0-0.598,0c-0.301,0.299-0.603,0.299-0.904,0.299   c-2.1-1.799-5.101-3-7.799-2.101c-0.301,0-0.903,0.301-1.205,0.301c-0.9-0.6-1.799-1.201-3-1.502c-0.599,0-1.201,0-1.799,0   c-1.201,0-2.104,0-3.301,0.301C150.36,140.155,150.059,139.854,150.059,139.554z" fill="#727376"/><path d="M216.385,198.977c0,0.301,0,0.601,0,0.901c0.301,0.9,0.603,1.799,0.603,2.701v0.299c0,0.301,0,0.6,0,0.901   c0,0.299-0.301,0.899-0.603,1.199c0,0.301,0,0.601,0,0.902c0.301,0.899,0.603,2.1,0.603,3v0.301c0,0.6-0.301,0.899-0.301,1.5   c-1.502,5.401-6.904,8.406-12.008,6.904c-2.1-0.301-3.598-1.502-5.1-3c0-0.301-0.297-0.301-0.297-0.301   c-2.402-0.601-4.205-1.801-5.406-3.603l0,0c-2.699,2.1-6.301,3.002-9.603,2.1c0,0,0,0-0.297,0   c-0.903,0.601-1.803,0.902-3.004,1.201h-0.301c-0.598,0.301-1.197,0.301-2.101,0.301c-0.899,0-1.799,0-2.703-0.301   c-0.297,0.301-0.896,0.301-1.498,0.301c-1.201,1.197-2.402,2.1-3.899,2.703c-0.301,0-0.301,0-0.603,0.297c-0.301,0-0.603,0-0.9,0   c-0.899,0-1.803-0.297-2.699-0.599c-0.603,0.599-0.903,0.599-1.506,0.599c-1.498,0.899-3.297,1.803-5.097,2.401c0,0,0,0-0.301,0   c-0.602,0.297-1.502,0.297-2.401,0.297c-8.402,0-15.306-6.9-15.306-15.603c0-3.301,0.9-6.603,3-9.306c0-0.299,0-0.899,0-1.199   c0-7.203,4.799-13.506,11.703-15.606l0,0c0.904,0,1.799-0.301,2.703-0.301c3,0,6,0.901,8.402,2.401   c0.603-0.299,1.201-0.299,1.502-0.299c1.502-1.201,3.301-2.402,5.402-3.002h0.301c0.598,0,1.197,0,2.101,0   c3.899,0,7.799,1.801,10.502,4.801c2.101-0.6,4.201-0.899,6.301-0.299c2.703,0.899,5.104,2.701,6.305,5.103   c1.502-0.601,3.301-0.601,4.799,0c0.904,0.299,1.502,0.6,2.402,0.899c1.201,0,2.401,0,3.305,0.299   c3.9,0.901,6.603,4.502,6.603,8.404l0,0c0,0.6,0,0.901-0.301,1.502C216.686,198.078,216.385,198.678,216.385,198.977z" fill="#4E5A62"/><path d="M174.669,212.483c-0.301-0.301-0.904-0.301-1.201-0.301c-0.9,1.201-2.104,2.404-3.904,3.002   c0,0-0.301,0-0.599,0c-1.201,0-2.1-0.301-3-0.598c-0.301,0.297-0.602,0.297-0.903,0.598c-0.301,0-0.599-0.301-0.9-0.301   c-1.502,1.201-3,2.402-5.101,2.703c-0.602,0.297-1.201,0.297-2.1,0.297c-7.506,0-13.506-6-13.506-13.502   c0-3.301,1.201-6.303,3.301-8.705c0-0.601,0-1.199,0-1.799c0-6.603,4.201-12.006,9.904-13.506c0.899-0.299,1.799-0.299,2.401-0.299   c3.301,0,6.302,1.199,8.703,3c0.301-0.299,0.603-0.601,0.899-0.9c0.301,0.299,0.599,0.299,0.599,0.601   c1.502-1.801,3.606-3.002,5.707-3.603c0.598-0.299,1.197-0.299,1.799-0.299c4.201,0,7.799,2.4,9.904,5.701   c1.799-1.199,4.201-1.5,6.301-0.9c3,0.601,5.1,3.002,6.004,5.703c1.498-0.902,3.297-1.201,5.101-0.902   c0.899,0.301,1.803,0.601,2.401,1.201c1.201-0.299,2.398-0.299,3.603,0c3,0.901,4.799,3.603,4.799,6.603c0,0.301,0,0.6,0,0.901   c-0.297,0.601-0.598,1.5-0.899,1.799c0,0.301,0.301,0.301,0.301,0.601c0,0-0.301,0.301-0.301,0.6   c0.603,0.601,1.201,1.5,1.201,2.402c0,0.299,0,0.299-0.301,0.6c0,0.601-0.297,1.201-0.598,1.5c0,0.299,0,0.299,0.301,0.601   c-0.301,0-0.301,0.299-0.301,0.299c0.301,1.201,0.598,2.103,0.598,3.301c0,0.6,0,0.901,0,1.201   c-1.201,4.203-5.402,6.906-9.603,5.701c-2.101-0.598-3.603-1.799-4.502-3.299c-0.301,0-0.603,0-1.201,0   c-1.799-0.601-3.603-1.801-4.502-3.603c-0.297,0-0.598,0-0.899,0s-0.603-0.299-0.899-0.299c-2.101,2.101-5.402,3-8.406,2.402   c-0.301-0.301-0.598-0.301-1.196-0.601c-0.904,0.899-2.101,1.5-3.306,1.799c-0.598,0-1.197,0-1.799,0c-1.201,0-2.401,0-3.301-0.601   C174.971,211.883,174.971,212.182,174.669,212.483z" fill="#6C6E70"/><path d="M115.548,286.31c-1.803,0.603-3.305,0.603-5.104,0.603c-0.903,0-2.1,0-3.004-0.301h-0.297   c-9.004-2.699-15.008-10.804-15.008-20.109c0-3.301,0.603-6.301,2.101-9.301c-0.896-2.402-1.197-4.804-1.197-7.502   c0-4.803,1.498-9.305,4.502-13.205c-6.301-4.803-9.908-12.305-9.908-20.109c0-14.406,11.707-25.81,25.812-25.81   c5.101,0,10.205,1.5,14.406,4.201c4.803-4.201,10.803-6.603,17.406-6.603c14.108,0,25.812,11.705,25.812,25.81   c0,0.301,0,0.603,0,0.603c0.297,0,0.899-0.301,1.502-0.301c0,0,0-0.301,0.301-0.301c1.197,0,2.699-0.299,3.9-0.299   c5.1,0,9.904,1.5,13.807,4.199c0,0,0.297,0,0.297-0.297c0.598-0.599,1.502-0.599,2.402-0.301c2.397-2.402,5.401-4.201,8.703-5.103   c0,0,0,0,0.297,0c0.903-0.299,2.104-0.299,3.004-0.299c11.406,0,21.008,9.306,21.008,20.707c0,2.703-0.598,5.101-1.502,7.502   c1.502,3.004,2.101,6.301,2.101,9.305c0,9.306-6,17.406-15.004,20.108c0,0,0,0.298-0.301,0.298c-0.899,0-2.101,0-3,0   c-1.803,0-3.301,0-5.101-0.599c-0.301,0.899-1.205,0.899-1.803,0.899c-0.297,0-0.598,0-0.598-0.301   c-1.799,2.104-3.9,3.903-6.301,4.803c-0.301,0-0.301,0-0.603,0c-0.603,0-0.899,0-1.498,0c-1.502,0-3.004,0-4.502-0.598   c-0.301,0-0.301,0.297-0.603,0.297c-0.301,0.301-1.201,0.603-1.799,0.301c0,0,0,0-0.301,0c-2.401,1.804-5.104,3.302-8.104,4.201   c0,0,0,0-0.297,0c-1.205,0.301-2.402,0.301-3.603,0.301c-1.803,0-3.301-0.301-4.804-0.598   c-2.699,10.502-12.305,17.707-23.108,17.707c-1.201,0-2.402-0.302-3.599-0.302c-0.301,0-0.301,0-0.301,0   c-3.004-0.899-5.703-2.401-8.104-4.2c-0.301,0-0.301,0-0.301,0c-0.598,0.297-1.201,0-1.799-0.302c-0.301,0-0.301-0.301-0.598-0.301   c-1.502,0.301-3.004,0.603-4.502,0.603c-0.603,0-0.904,0-1.502,0h-0.301c-2.699-0.904-4.799-2.703-6.603-4.804   c0,0-0.297,0.301-0.599,0.301C116.745,287.213,115.845,286.912,115.548,286.31z" fill="#4E5A62"/><path d="M117.046,285.113c0.603,0,1.201-0.302,1.799-0.302c1.502,2.101,3.603,3.899,6.301,4.804   c0.301,0,0.904,0,1.205,0c1.799,0,3.297-0.302,4.799-0.904c0.599,0.302,0.9,0.603,1.502,1.201c0.301-0.297,0.899-0.297,1.197-0.599   c2.401,2.101,5.104,3.603,8.406,4.502c1.201,0.298,2.1,0.298,3.301,0.298c10.803,0,19.808-7.804,21.606-18.005   c2.101,0.599,4.201,0.9,6.306,0.9c1.201,0,2.397,0,3.301-0.302c3.301-0.899,6-2.401,8.401-4.502   c0.301,0.301,0.904,0.301,1.201,0.603c0.598-0.302,0.899-0.899,1.502-1.201c1.498,0.599,3,1.201,4.803,1.201   c0.297,0,0.896,0,1.197-0.302c2.703-0.899,4.803-2.702,6.301-4.803c0.603,0,1.205,0.301,1.803,0.301   c0.297-0.301,0.599-0.598,0.9-0.899c1.799,0.599,3.602,0.899,5.703,0.899c0.899,0,1.803-0.301,2.699-0.301   c7.808-2.397,13.506-9.603,13.506-18.306c0-3.301-0.598-6.301-2.101-9.004c0.904-2.402,1.502-5.101,1.502-7.804   c0-10.205-8.406-18.606-18.908-18.606c-0.899,0-1.799,0-2.703,0c-3.599,1.201-6.603,3.301-9.004,6   c-0.598-0.297-0.896-0.599-1.197-0.896c-0.603,0.598-1.201,0.896-1.502,1.498c-3.904-3-8.703-4.804-14.104-4.804   c-1.201,0-2.402,0-3.603,0.301c-1.502,0.603-3,1.201-4.502,1.799c0.301-1.197,0.301-2.401,0.301-3.899   c0-13.205-10.807-23.709-23.711-23.709c-6.904,0-12.904,2.701-17.105,7.203c-4.201-3.301-9.305-5.103-14.707-5.103   c-13.205,0-23.711,10.805-23.711,24.01c0,8.402,4.205,15.607,10.807,19.808c-3.301,3.599-5.703,8.402-5.703,13.506   c0,2.699,0.603,5.402,1.799,7.803c-1.498,2.699-2.402,5.699-2.402,9c0,8.707,5.707,15.908,13.506,18.31   c0.904,0,1.799,0.302,2.703,0.302c2.101,0,3.9-0.603,5.703-0.904C116.443,284.511,116.745,284.812,117.046,285.113z    M156.661,235.891c0-0.301,0-0.598,0-0.899v-0.297C156.661,235.293,156.661,235.59,156.661,235.891z" fill="#727376"/><path d="M290.515,190.875c2.101-3.002,5.101-5.103,8.703-6.002c0.599-0.301,0.899-0.301,1.2-0.301   c2.101-2.701,5.101-4.5,8.402-5.402c8.104-2.399,16.506,2.701,18.908,10.806c0,0.899,0.301,1.5,0.301,2.399v0.301   c0,1.801-0.301,3.601-1.201,5.402c0.302,0.6,0.302,1.201,0.302,1.5c0.297,0.901,0.599,1.801,0.899,2.401   c0,0.601,0.297,0.9,0.297,1.201v0.299c-0.297,1.801-0.598,3.301-1.498,4.502c0,0.601,0,1.201,0,1.801   c0.302,0.601,0.599,1.5,0.9,2.4c0.301,0.901,0.301,1.502,0.301,2.103v0.301c0,6-4.205,11.401-10.205,12.904   c-1.799,0.301-3.899,0.602-5.703,0.301c-1.2,0.9-2.698,1.498-4.2,1.799c-2.703,0.9-5.703,0.603-8.402-0.301   c-2.104,4.201-6.004,7.506-10.808,8.703c-3.598,1.201-7.502,0.904-10.803-0.599c-4.201,5.402-10.502,8.703-17.707,8.703   c-0.9,0-2.101,0-3.302,0c0-0.301,0-0.301-0.301-0.301c-3.302-0.899-6.599-3-9-5.401c-0.903,0.301-1.803,0.301-2.401-0.301   c-0.301,0-0.301-0.301-0.603-0.301c-4.201,2.703-9.301,4.502-14.402,4.502c-1.502,0-3.004-0.297-4.502-0.297   c0-0.301,0-0.301,0-0.301c-11.406-3-18.912-13.502-18.912-25.209c0-0.899,0-1.498,0-2.402c-3.599-4.502-5.397-9.904-5.397-15.604   c0-14.106,11.104-25.211,25.205-25.211c1.205,0,2.703,0,3.904,0.301h0.301c3,0.9,6.004,2.4,8.401,4.502c0.301,0,0.301,0,0.599,0   c0.603-0.301,1.205-0.301,1.803,0.299c0,0,0.301,0.299,0.598,0.299c1.502-0.598,3.004-0.899,4.803-0.899   c0.301,0,0.904,0.301,1.502,0.301h0.297c2.703,0.899,5.104,2.701,6.904,4.801c0.301,0,0.603,0,0.603,0c0.9-0.301,1.498,0,2.1,0.6   l0,0c1.8-0.301,3.603-0.6,5.101-0.6c1.201,0,2.401,0.299,3.603,0.299l0,0c2.101,0.601,3.899,1.502,5.703,2.701   c0.297-0.299,0.599-0.299,0.899-0.299c5.703-1.5,11.406-0.299,15.606,3.603c0,0,0.302-0.301,0.599-0.301   C290.213,190.875,290.213,190.875,290.515,190.875z" fill="#4E5A62"/><path d="M256.899,186.674c-0.899,0.299-1.502,0.299-2.1,0.6c-1.502-2.401-3.904-4.203-6.603-5.404   c-0.297,0-0.9,0-1.201,0c-1.799,0-3.598,0.301-5.401,1.201c-0.297-0.299-0.9-0.9-1.201-1.201c-0.603,0.301-0.9,0.301-1.498,0.601   c-2.402-2.399-5.406-3.902-8.703-4.801c-1.205-0.301-2.402-0.301-3.606-0.301c-12.904,0-23.105,10.205-23.105,23.111   c0,5.701,2.101,10.803,5.398,15.002c-0.297,0.903-0.297,2.104-0.297,3.004c0,11.104,7.502,20.41,17.707,23.41   c1.201,0.297,2.402,0.297,3.904,0.297c5.397,0,10.803-1.799,14.703-5.1c0.603,0.598,1.201,0.899,1.498,1.502   c0.602-0.301,0.903-0.603,1.506-0.904c2.397,3.004,5.699,5.104,9.302,6.305c1.2,0,2.1,0.297,3,0.297   c7.205,0,13.506-3.899,17.108-9.599c3.302,1.799,7.201,2.398,11.104,1.498c4.8-1.498,8.703-5.104,9.904-9.606   c2.698,1.506,6,1.803,9,1.205c1.502-0.602,3.004-1.205,4.205-2.1c1.799,0.297,3.899,0.297,6-0.301   c5.104-1.201,8.405-5.703,8.702-10.803c-0.297-0.603-0.297-1.203-0.297-1.804c-0.603-1.201-0.903-2.399-1.502-3.301   c0,0,0.301-0.299,0.301-0.6c0-0.299-0.301-0.601-0.301-0.9c0.899-1.201,1.799-3.002,1.799-4.502c0-0.299,0-0.6,0-0.899   c-0.297-0.902-0.899-1.801-1.498-2.701c0-0.301,0.298-0.6,0.298-0.901c0-0.299-0.298-0.601-0.298-0.601   c0.9-1.799,1.201-3.899,1.201-5.701c0-0.902,0-1.5-0.301-2.101c-1.804-7.203-9.306-11.406-16.507-9.604   c-3,0.899-5.703,2.701-7.502,5.402c-0.603,0-1.201,0-1.803,0.301c-3.599,0.899-6.302,3-8.101,6.002c-0.603,0-0.904,0-1.201,0.299   c-0.603,0-1.201,0.301-1.804,0.301c-3.598-3.603-9.004-5.404-14.405-3.902c-0.599,0.299-1.201,0.299-1.8,0.601   c-1.799-1.201-3.602-2.103-5.702-2.701c-1.201-0.301-2.101-0.301-3.302-0.301c-2.101,0-3.899,0.301-6,0.9   C257.502,187.573,257.201,187.274,256.899,186.674z" fill="#6C6E70"/><path d="M307.318,190.875c-1.197-1.5-2.699-3.002-3.599-4.801c-0.603-1.201-1.201-2.402-1.502-3.603h-0.302   c-2.397-10.803,2.402-21.908,12.009-27.31c3.297-2.101,6.899-3.002,10.803-3.301c1.8-2.402,4.201-4.502,6.9-6.002   c5.104-3.002,11.104-3.902,16.808-3.002c0.899-9.303,6.603-17.707,15.008-22.81c14.406-8.401,33.31-3.301,41.716,11.406   c3,5.402,4.502,11.404,3.899,17.708c7.502,2.399,13.506,7.203,17.41,13.805c8.401,14.705,3.297,33.312-11.104,42.015   c-9.306,5.103-20.712,5.404-30.013,0.301c-0.899,0.299-1.502,0.899-2.101,1.201c-0.603,0.299-0.903,0.601-1.502,0.9   c-2.401,6.303-6.903,12.004-12.904,15.305c-0.899,0.603-1.803,1.201-3.004,1.502c-2.101,6.004-6.603,10.803-12.004,14.104   c-13.502,7.803-30.912,3.301-38.716-10.201c-0.598-1.506-1.196-2.703-1.799-4.205c0,0,0,0,0-0.297   c-0.899-3.606-1.201-7.205-0.599-10.808c0-0.299-0.301-0.299-0.301-0.6c-0.603-0.299-0.899-0.9-0.603-1.799   c0-0.301,0-0.601,0-0.902c-1.498-1.201-2.699-2.701-3.599-4.201c-0.301-0.601-0.603-0.899-0.903-1.5c0-0.301,0-0.301,0-0.601   c-0.599-3.002-0.298-6.303,0.903-9.303c0-0.301-0.301-0.6-0.603-0.901c-0.599-0.299-0.599-1.201-0.301-1.799   C307.318,190.875,307.318,190.875,307.318,190.875z" fill="#4E5A62"/><path d="M309.121,191.774c0.599,0.601,1.201,1.201,1.498,1.801c-1.498,2.701-2.101,6.002-1.196,9.304   c0,0.6,0.297,0.901,0.598,1.502c0.9,1.799,2.402,3.301,3.904,4.5c0,0.6-0.302,1.201-0.302,1.801c0.599,0.6,0.9,0.899,1.201,1.201   c-0.603,3.599-0.603,7.502,0.297,11.406c0.603,1.197,1.201,2.402,1.804,3.599c7.201,12.606,23.41,16.807,36.013,9.606   c5.401-3.004,9.305-8.104,11.405-13.808c1.201-0.602,2.402-0.899,3.302-1.498c6.301-3.603,10.502-9.006,12.306-15.308   c0.899-0.301,1.497-0.902,2.397-1.201c0.903-0.6,1.803-1.201,2.702-1.801c8.703,5.102,19.808,5.703,29.113,0.301   c13.804-8.104,18.606-25.51,10.502-39.017c-3.899-7.201-10.502-11.703-17.707-13.504c0.899-6.002-0.301-12.605-3.603-18.308   c-7.799-13.504-25.209-18.308-39.013-10.504c-8.702,5.103-13.808,14.107-14.405,23.41c-5.402-1.502-11.707-0.902-17.406,2.399   c-2.703,1.502-5.104,3.603-6.903,6.004c-3.603,0.299-7.503,1.199-10.804,3.301c-9.004,5.101-13.205,15.305-10.808,24.908   c0.302,0.902,0.904,2.101,1.502,3.002c1.201,2.1,2.703,3.901,4.201,5.401C309.423,190.875,309.423,191.176,309.121,191.774z" fill="#727376"/><path d="M415.364,204.979c14.703-8.402,19.808-27.31,11.401-42.015c-3.899-6.603-9.903-11.705-17.406-14.106   c0.599-6.002-0.899-12.306-3.899-17.708c-8.707-14.705-27.61-19.807-42.317-11.104c-5.703,3.301-10.205,8.404-12.904,14.406   c-6.305-4.502-13.808-6.902-21.61-7.203c-3.603-5.101-8.101-9.603-13.507-12.904c-6.603-3.902-13.803-6.303-21.306-6.303   c3.599-3.601,5.703-8.404,5.703-13.504c0-9.904-8.104-18.008-18.31-18.008c-3.301,0-6.603,0.902-9.603,2.701   c-3-2.701-7.205-4.201-11.405-4.201c-9.904,0-18.009,7.502-18.306,17.406c0-0.299,0-0.299-0.301-0.299c-0.9,0-1.803,0-2.699,0   c-3.306,0-6.306,0.9-9.306,2.402c-0.301-0.301-0.899-0.301-1.498-0.301c-1.506-1.5-3.606-2.701-5.707-3.301   c-0.301,0-0.301,0-0.301,0c-0.896,0-1.498-0.299-2.398-0.299c-4.205,0-8.104,1.799-10.807,5.101   c-1.498-6.002-6.9-10.803-13.205-10.803c-3.297,0-6,1.201-8.402,3.002c-2.101-1.201-4.502-1.801-6.603-1.801   c-7.502,0-13.803,6.002-13.803,13.504c0,3.901,1.799,7.504,4.498,9.904c-1.197,1.801-1.799,3.901-1.799,6.004   c0,1.199,0,2.4,0.603,3.601c-0.603,1.201-1.201,2.701-1.201,4.502c0,1.201,0.297,2.701,0.9,4.201   c-7.502,0.901-14.406,4.203-20.41,9.303c-0.896-1.199-2.101-1.799-3.297-2.4c-0.301,0-0.301,0-0.603,0s-0.603,0-0.9,0   c-0.899,0-1.803,0-2.401,0.299c-0.599-0.299-0.9-0.299-1.502-0.299c-1.498-1.201-3-1.801-4.502-2.401c-0.297,0-0.297,0-0.297,0   c-0.9,0-1.803-0.299-2.402-0.299c-8.406,0-15.008,6.902-15.008,15.004c0,3.301,1.205,6.303,3.004,8.705c0,0.6,0,0.899,0,1.201   c0,3.301,0.9,6.603,3,9.303c-2.101,1.799-3.904,3.601-5.703,6.002c-4.201,5.101-6.904,11.404-7.799,18.006   c-13.506,1.201-23.711,12.605-23.711,26.111c0,3.301,0.599,6.904,2.101,9.904c-1.502,4.201-2.101,8.703-2.101,13.205   c0,6.004,1.201,11.703,3.603,17.105c0.599,1.2,1.197,2.401,2.101,3.603c-0.904,1.803-1.201,4.2-1.201,6.301   c0,0.904,0,1.804,0.297,2.703c-2.1,2.703-3.899,5.703-5.397,8.703c-3.606,7.205-5.707,15.306-5.707,23.41   c0,9.903,3.004,19.506,8.104,27.912c4.205,6.899,9.904,12.603,16.808,16.803v0.302c-0.301,2.101-0.603,4.2-0.603,6.004   c0,11.401,4.502,22.209,12.008,30.611c6,6.603,13.803,11.104,22.506,13.205c0.599,7.803,3.904,15.305,9.603,20.707   c6.004,6.301,14.41,9.606,23.113,9.606c1.498,0,3,0,4.799-0.302c0,0,0,0,0.301,0c3.603,3,7.502,5.402,12.004,7.201   c5.401,2.401,11.406,3.603,17.707,3.603c12.004,0,23.41-4.502,31.812-13.205c1.803-1.799,3.603-3.903,5.101-6.301l6.904,3.598   c0.904,0.603,2.1,0.302,2.703-0.598c0.603-0.9,0.603-2.101,0-3l-6-6.005c1.799-3.603,2.996-7.502,3.9-11.405   c1.498,9.004,5.703,17.41,12.305,23.711c8.401,8.703,20.104,13.205,32.113,13.205c6,0,12.004-1.201,17.707-3.603   c4.2-1.799,8.101-4.201,11.703-7.201c0.301,0,0.301,0,0.598,0c1.503,0.302,3.005,0.302,4.503,0.302   c8.702,0,17.108-3.306,23.108-9.606c5.703-5.402,9.004-12.904,9.606-20.707c8.703-2.101,16.507-6.603,22.507-13.205   c7.803-8.402,12.004-19.21,12.004-30.611c0-1.804-0.297-3.903-0.599-6.004v-0.302c6.904-4.2,12.603-9.903,16.808-16.803   c5.401-8.406,8.101-18.009,8.101-27.912c0-8.104-1.799-16.205-5.401-23.41c-2.699-4.804-5.703-9.302-9.603-13.205   c2.1-2.699,3.603-5.402,5.1-8.104c2.402-5.402,3.603-11.101,3.603-17.105c0-9.004-2.702-17.41-8.401-24.611   c-0.903-1.199-1.803-2.399-2.703-3.301l3.603-3.601C410.862,207.381,413.26,206.18,415.364,204.979z M248.498,373.348   c-1.803-3.603-3.904-7.205-6.904-10.507c1.803-2.698,3-5.401,3.904-8.104c1.799-4.799,2.699-9.903,2.699-15.004   c0-7.201-1.803-14.104-4.799-20.109c0-0.297-0.301-0.598-0.301-0.899c3.297-0.599,6.603-2.401,9.301-4.799   c0.301,0.297,0.599,0.297,0.899,0.297c0.301,0.302,0.603,0.302,0.904,0.302c1.498,2.1,3.301,3.899,5.699,5.401   c-3.301,6.004-4.799,12.903-4.799,19.808c0,5.101,0.899,10.205,2.698,15.004c0.302,0.904,0.603,1.804,1.201,3.004l-7.201,7.502   c-0.603,0.599-0.904,1.8,0,2.703c0.598,0.899,1.799,1.197,2.703,0.599l4.498-2.101c-1.799,2.101-3,4.502-4.201,6.904   c-1.502,3.301-2.402,6.899-3,10.502C250.896,380.247,250,376.648,248.498,373.348z M401.255,211.282   c1.804,1.5,3.302,3.304,4.503,5.103c5.104,6.301,8.104,14.406,8.104,23.109c0,5.703-1.201,11.104-3.603,16.205   c-1.498,3.301-3.603,6.305-6,9.004c4.2,4.201,7.803,8.703,10.502,14.104c3.301,6.903,5.101,14.406,5.101,22.511   c0,9.903-2.699,18.907-7.503,26.711c-4.502,6.899-10.502,12.603-17.405,16.804c0,0.603,0,1.2,0.301,1.803   c0.302,2.101,0.302,3.899,0.302,5.703c0,11.104-4.205,21.306-11.104,28.812c-6.005,6.603-14.109,11.402-23.41,13.205   c0,8.101-3.302,15.603-8.703,21.009c-5.703,5.401-13.205,8.703-21.61,8.703c-1.498,0-3,0-4.201-0.302c-0.599,0-1.201,0-1.502-0.301   c-3.599,3.301-7.804,6.004-12.005,7.803c-5.401,2.402-11.104,3.603-16.803,3.603c-12.009,0-22.812-4.803-30.314-12.606   c-7.803-7.804-12.606-18.606-12.606-30.31c0-6.306,1.205-12.306,3.603-17.406c1.804-4.205,4.502-8.104,7.502-11.405   c-0.297-0.603-0.598-1.201-0.899-1.804l-9.904,5.406l8.105-8.703c-0.603-1.201-1.201-2.703-1.804-4.205   c-1.498-4.502-2.397-9.302-2.397-14.104c0-6.904,1.498-13.507,4.502-19.205c0.298-0.603,0.599-1.201,0.899-1.804   c-3.301-1.2-5.702-3.603-7.506-6.301c-0.598,0-0.896-0.302-1.498-0.302c-0.603-0.301-1.502-0.301-2.1-0.598   c-3.301,3.301-7.506,5.401-12.306,5.401c0.599,1.2,1.201,2.401,1.803,3.603c2.996,5.698,4.498,12.301,4.498,19.205   c0,4.803-0.899,9.603-2.397,14.104c-1.205,3.301-2.703,6.306-4.502,9.306c3,3.301,5.699,7.2,7.498,11.405   c2.401,5.101,3.606,11.101,3.606,17.406c0,7.201-1.502,13.804-4.803,19.808l6.904,7.2l-8.406-4.502   c-1.799,3.005-3.903,5.402-6.004,7.804c-7.799,7.804-18.603,12.606-30.31,12.606c-6,0-11.707-1.2-16.804-3.603   c-4.502-1.799-8.707-4.502-12.309-7.803c-0.301,0.301-0.9,0.301-1.498,0.301c-1.201,0.302-2.703,0.302-4.201,0.302   c-8.406,0-15.908-3.302-21.611-8.703c-5.401-5.406-8.703-12.908-8.703-21.009c-9.301-1.803-17.109-6.603-23.109-13.205   c-7.205-7.506-11.406-17.707-11.406-28.812c0-1.804,0-3.603,0.301-5.703c0.301-0.603,0.301-1.2,0.301-1.803   c-6.904-4.201-12.904-9.904-17.406-16.804c-4.803-7.804-7.506-16.808-7.506-26.711c0-8.104,1.803-15.607,5.104-22.511   c1.799-3.302,3.598-6.302,6-9.004c-0.301-1.197-0.301-2.101-0.301-3.302c0-2.397,0.301-4.498,1.205-6.603   c-0.904-1.498-1.803-3-2.402-4.201c-2.402-5.101-3.603-10.502-3.603-16.205c0-4.502,0.9-9.004,2.402-13.205   c-1.502-3-2.104-6.305-2.104-9.904c0-13.205,10.209-23.709,23.113-24.01c0.899-6.902,3.598-13.504,7.799-18.906   c2.104-2.703,4.502-4.804,7.205-6.904c-2.402-2.402-4.201-5.703-4.201-9.603c0-0.601,0-1.201,0.301-1.801   c-1.799-2.101-3.004-5.103-3.004-8.104c0-6.902,5.703-12.604,12.606-12.604c0.599,0,1.201,0,1.803,0.301   c1.799,0.299,3.599,1.201,4.799,2.4c0.297,0,0.599,0,0.899-0.299c0.301,0.299,0.603,0.601,0.603,0.601   c0.9-0.301,2.101-0.601,3-0.601c0.297,0,0.599,0,0.599,0.299c1.502,0.301,3.004,1.502,3.603,2.701c0.301,0,0.598,0,1.201-0.299   c6.301-5.703,14.703-9.303,23.707-9.904c-1.498-1.5-2.401-3.6-2.401-6.002c0-1.801,0.301-3.301,1.205-4.502   c-0.603-1.201-0.903-2.402-0.903-3.601c0-2.401,1.205-4.803,2.703-6.303c-3.004-2.101-5.104-5.703-5.104-9.604   c0-6.301,5.104-11.103,11.406-11.103c2.402,0,4.803,0.598,6.904,2.1c1.799-2.1,4.803-3.301,8.101-3.301   c6.004,0,11.104,5.101,11.104,11.404c0,0.601,0,1.201,0,1.801c0.603-0.301,1.205-0.6,1.803-0.901   c2.101-3.902,6.301-6.603,11.104-6.603c0.599,0,1.502,0,2.101,0c2.402,0.901,4.201,2.401,6.004,4.203   c0.301-0.301,0.301-0.6,0.599-0.6c0.598,0.299,0.899,0.6,1.201,0.899c2.402-2.101,5.703-3.301,9.306-3.301   c0.896,0,1.799,0,2.401,0.301c1.197,0.299,2.101,0.601,2.996,1.199c0-0.899,0-1.799,0-2.701c0-8.703,6.904-15.906,15.908-15.906   c4.502,0,8.405,1.801,11.405,4.803c2.699-2.103,6-3.301,9.603-3.301c9.004,0,16.205,7.201,16.205,15.906   c0,5.701-3,10.803-7.502,13.504c0.603,0.6,1.201,1.5,1.804,2.1c0.297,0,0.598,0,0.899,0c7.803,0,15.004,2.103,21.31,6.004   c5.401,3.301,10.201,8.103,13.502,13.504h0.302c9.004,0,17.104,3.002,23.711,8.404c2.101-6.603,6.603-12.305,12.903-16.207   c13.804-7.803,31.214-3,39.013,10.504c3.302,5.703,4.502,12.305,3.603,18.308c7.205,1.801,13.808,6.303,17.707,13.504   c8.104,13.506,3.302,30.912-10.502,39.017c-2.101,1.201-4.502,2.101-6.603,2.701L401.255,211.282z" fill="#4E5A62"/><g><path d="M121.548,156.962c0,6.902,4.502,12.904,11.105,15.004h0.301c0.896,0,1.498,0.301,2.401,0.301    c2.996,0,5.699-0.901,8.101-2.401c0.301,0.301,0.603,0.301,1.201,0.301c1.502,1.199,3,2.399,5.101,2.701    c0,0.299,0,0.299,0.301,0.299c0.603,0,1.201,0,1.799,0c3.904,0,7.506-1.801,9.908-4.502c2.101,0.601,4.201,0.601,6,0    c2.703-0.6,4.803-2.399,6-4.502c1.502,0.301,3.004,0.301,4.502,0c0.602-0.299,1.502-0.598,2.1-0.899c1.205,0,2.101,0,3.306-0.299    c3.598-0.901,6.301-4.203,6.301-8.104v-0.299c0-0.6,0-0.899-0.301-1.201c0-0.601,0-0.899-0.301-1.201c0-0.299,0-0.601,0-0.601    c0.301-0.899,0.603-1.799,0.903-2.701c0-0.299,0-0.299,0-0.601c-0.301,0-0.301-0.299-0.301-0.601c0-0.299-0.301-0.899-0.301-1.201    c0-0.299,0-0.299-0.301-0.598c0.603-0.902,0.603-2.103,0.603-3.002v-0.299c0-0.601,0-0.902-0.301-1.502    c-0.301-1.799-1.201-3-2.402-4.201c0.301,0,0.904-0.301,1.201-0.301c0.301,0.301,0.9,0.301,1.201,0.301    c1.201,0.899,2.401,1.5,3.899,1.801c0,0,0,0,0.301,0c0.603,0.299,1.201,0.299,1.799,0.299c5.406,0,10.209-3.301,12.008-8.103    c0.301,0,0.899,0,1.197,0c0.602,0,1.506,0,2.104-0.301c0,0,0,0,0.297,0c0.301,0,0.603-0.299,1.205-0.299    c0.896,0.299,1.799,0.601,2.699,0.899c0,0,0,0.301,0.297,0.301c0.602,0,1.506,0,2.104,0c1.201,0,2.1,0,3-0.301    c0.603,0.301,1.201,0.601,1.799,0.601c1.205,1.201,2.703,2.101,4.201,2.701c0.301,0,0.301,0.301,0.603,0.301s0.602,0,1.201,0    c0.899,0,1.803-0.301,2.699-0.301c0.603,0.301,1.205,0.301,1.803,0.301c1.502,1.201,3.301,2.101,5.402,2.701c0,0,0,0,0.301,0    c0.899,0,1.799,0.299,2.703,0.299c0.599,0,1.498-0.299,2.397-0.299c2.101,6.901,8.703,11.705,15.908,11.705    c0.899,0,1.799-0.301,2.699-0.301c0.301,0,0.301,0,0.301,0c2.101-0.601,3.899-1.5,5.401-2.701c0.603,0,1.201,0,1.8-0.299    c0.903,0,1.803,0.299,3.004,0.299c0.297,0,0.599,0,0.899,0c0.302,0,0.302,0,0.599-0.299c1.502-0.601,3.004-1.502,4.205-2.703    c0.598,0,1.196-0.299,1.799-0.598c0.899,0.299,1.799,0.299,3,0.299c0.603,0,1.502,0,2.101,0c0.301,0,0.301,0,0.301-0.299    c6.603-1.801,10.804-7.504,10.804-14.406c0-2.1-0.599-4.203-1.498-6.002c0.599-1.801,0.899-3.301,0.899-5.103    c0-3.002-0.899-6.002-2.702-8.703c3.903-3.301,6.305-8.404,6.305-13.806c0-9.904-8.104-18.008-18.31-18.008    c-3.301,0-6.603,0.902-9.603,2.701c-3-2.701-7.205-4.201-11.405-4.201c-9.904,0-18.009,7.502-18.306,17.406    c0-0.299,0-0.299-0.301-0.299c-0.9,0-1.803,0-2.699,0c-3.306,0-6.306,0.9-9.306,2.402c-0.301-0.301-0.899-0.301-1.498-0.301    c-1.506-1.5-3.606-2.701-5.707-3.301c-0.301,0-0.301,0-0.301,0c-0.896,0-1.498-0.299-2.398-0.299    c-4.205,0-8.104,1.799-10.807,5.101c-1.498-6.002-6.9-10.803-13.205-10.803c-3.297,0-6,1.201-8.402,3.002    c-2.101-1.201-4.502-1.801-6.603-1.801c-7.502,0-13.803,6.002-13.803,13.504c0,3.901,1.799,7.504,4.498,9.904    c-1.197,1.801-1.799,3.901-1.799,6.004c0,1.199,0,2.4,0.603,3.601c-0.603,1.201-1.201,2.701-1.201,4.502    c0,4.801,3.301,9.303,8.105,10.804c0.297,0,0.297,0,0.297,0h0.301c-1.803,0.6-3.301,1.502-4.502,3.002h-0.297    c-2.104,0.6-3.606,1.5-5.104,3c-2.401-1.799-5.703-2.4-8.703-1.5h-0.301c-0.9-0.601-1.799-0.9-2.703-1.201h-0.297    c-0.599-0.299-1.502-0.299-2.101-0.299c-0.9,0-1.502,0-2.402,0.299c-0.301-0.299-0.899-0.299-1.502-0.299    c-0.899-1.201-2.101-2.101-3.598-2.701c-0.301,0-0.301,0-0.603,0s-0.603,0-0.9,0c-0.899,0-1.803,0-2.401,0.299    c-0.599-0.299-0.9-0.299-1.502-0.299c-1.498-1.201-3-1.801-4.502-2.401c-0.297,0-0.297,0-0.297,0c-0.9,0-1.803-0.299-2.402-0.299    c-8.406,0-15.008,6.902-15.008,15.004c0,3.301,1.205,6.303,3.004,8.705C121.548,156.362,121.548,156.661,121.548,156.962z     M171.364,123.648c0-1.801,0.301-3.301,1.205-4.502c-0.603-1.201-0.903-2.402-0.903-3.601c0-2.401,1.205-4.803,2.703-6.303    c-3.004-2.101-5.104-5.703-5.104-9.604c0-6.301,5.104-11.103,11.406-11.103c2.402,0,4.803,0.598,6.904,2.1    c1.799-2.1,4.803-3.301,8.101-3.301c6.004,0,11.104,5.101,11.104,11.404c0,0.601,0,1.201,0,1.801    c0.603-0.301,1.205-0.6,1.803-0.901c2.101-3.902,6.301-6.603,11.104-6.603c0.599,0,1.502,0,2.101,0    c2.402,0.901,4.201,2.401,6.004,4.203c0.301-0.301,0.301-0.6,0.599-0.6c0.598,0.299,0.899,0.6,1.201,0.899    c2.402-2.101,5.703-3.301,9.306-3.301c0.896,0,1.799,0,2.401,0.301c1.197,0.299,2.101,0.601,2.996,1.199c0-0.899,0-1.799,0-2.701    c0-8.703,6.904-15.906,15.908-15.906c4.502,0,8.405,1.801,11.405,4.803c2.699-2.103,6-3.301,9.603-3.301    c9.004,0,16.205,7.201,16.205,15.906c0,5.701-3,10.803-7.502,13.504c2.401,2.401,3.903,5.401,3.903,9.004    c0,1.801-0.301,3.601-1.2,5.103c1.2,1.799,1.498,3.902,1.498,6.002c0,6.002-3.599,10.804-9,12.304    c-0.603,0-1.201,0.301-1.804,0.301c-1.498,0-2.698-0.301-3.899-0.601c0,0.299-0.302,0.299-0.603,0.601    c-0.297,0-0.599-0.301-1.201-0.301c-0.899,1.502-2.397,2.701-4.2,3.301c-0.302,0-0.302,0-0.599,0c-1.201,0-2.401,0-3.302-0.601    c-0.301,0.301-0.602,0.601-0.899,0.601c-0.301,0-0.603,0-0.903-0.299c-1.498,1.5-3.599,2.701-5.699,3.301    c-0.603,0-1.502,0-2.401,0c-6.904,0-12.908-5.103-14.104-12.004c-1.502,0.299-3.004,0.601-4.201,0.601    c-0.903,0-1.803,0-2.401-0.301c-2.101-0.6-3.904-1.5-5.707-3c-0.297,0.299-0.599,0.299-0.896,0.299    c-0.301,0-0.603-0.299-0.904-0.601c-0.899,0.301-2.101,0.601-3,0.601c-0.297,0-0.599,0-0.899,0    c-1.799-0.601-3.301-1.801-4.201-3.301c-0.603,0-0.904,0.301-1.205,0.301c-0.297-0.301-0.595-0.601-0.595-0.601    c-1.205,0.299-2.401,0.601-3.903,0.601c-0.599,0-1.201-0.301-1.804-0.301c-1.196-0.299-2.401-0.9-3.297-1.5    c-0.603,0.299-1.205,0.6-1.803,0.899c-0.599,0-1.201,0-1.803,0c-0.896,0-2.101,0-2.996-0.299    c-0.904,4.801-5.104,8.402-10.209,8.402c-0.297,0-0.896,0-1.498,0c-1.498-0.598-2.703-1.199-3.9-2.1c-0.301,0-0.602,0-0.602,0    c-0.301,0-0.603-0.299-0.603-0.299c-0.896,0.299-1.498,0.299-2.397,0.299c-0.301,0-0.301,0-0.599,0    c-1.205-0.299-2.401-1.201-3.004-2.4c-0.301,0.299-0.603,0.299-0.9,0.299c0-0.299-0.301-0.299-0.301-0.601    c-0.899,0.301-1.799,0.601-2.699,0.601c-0.603,0-0.903,0-1.502-0.299C174.067,131.15,171.364,127.55,171.364,123.648z     M120.946,147.057c0-6.902,5.703-12.604,12.606-12.604c0.599,0,1.201,0,1.803,0.301c1.799,0.299,3.599,1.201,4.799,2.4    c0.297,0,0.599,0,0.899-0.299c0.301,0.299,0.603,0.601,0.603,0.601c0.9-0.301,2.101-0.601,3-0.601c0.297,0,0.599,0,0.599,0.299    c1.502,0.301,3.004,1.502,3.603,2.701c0.301,0,0.899,0,1.201-0.299c0,0.299,0.301,0.601,0.301,0.601    c1.197-0.301,2.101-0.301,3.301-0.301c0.598,0,1.201,0,1.799,0c1.201,0.301,2.1,0.902,3,1.502c0.301,0,0.903-0.301,1.205-0.301    c2.699-0.899,5.699,0.301,7.799,2.101c0.301,0,0.603,0,0.904-0.299c0.297,0,0.297,0,0.598,0c0.9-1.5,2.699-2.701,4.502-3.301    c0.297,0,0.598,0,0.899-0.299c0.899-1.201,2.402-2.402,4.201-2.703c3.9-1.199,7.804,1.201,9.004,5.103    c0,0.301,0,0.902,0.301,1.201c0,0.9-0.301,2.101-0.904,3.002c0,0.299,0.301,0.299,0.301,0.299c0,0.299-0.301,0.601-0.301,0.601    c0.301,0.601,0.603,0.899,0.904,1.5c0,0.301,0,0.301,0,0.301c0,1.201-0.301,1.799-1.201,2.701c0.297,0,0.297,0.299,0.598,0.601    c-0.301,0-0.301,0-0.301,0.299c0.301,0.301,0.603,0.901,0.603,1.801c0,0.299,0.301,0.6,0.301,0.899    c-0.301,2.701-2.101,5.103-4.803,6.002c-1.201,0.301-2.101,0.301-3.301,0c-0.599,0.301-1.201,0.902-2.101,1.201    c-1.803,0.301-3.603,0-4.799-0.9c-0.904,2.701-3.004,4.801-5.707,5.402c-2.1,0.6-4.201,0.301-6-0.9    c-1.799,3.301-5.401,5.402-9.305,5.402c-0.599,0-1.197-0.301-1.498-0.301c-2.101-0.598-3.9-1.799-5.406-3.301    c0,0-0.297,0.301-0.599,0.301c-0.297,0-0.598-0.301-0.899-0.601c-2.101,1.5-4.803,2.701-8.101,2.701c-0.603,0-1.506,0-2.104-0.299    c-5.401-1.502-9.603-6.603-9.603-12.604c0-0.601,0-1.201,0.301-1.801C122.15,153.061,120.946,150.059,120.946,147.057z" fill="#4E5A62"/><path d="M426.766,162.964c-3.899-6.603-9.903-11.705-17.406-14.106c0.599-6.002-0.899-12.306-3.899-17.708    c-8.707-14.705-27.61-19.807-42.317-11.104c-8.406,4.803-13.808,13.205-15.009,22.511c-5.698-0.902-11.703,0-16.506,3    c-2.699,1.5-5.101,3.603-6.9,6.002c-3.903,0.301-7.803,1.502-11.104,3.301c-9.606,5.404-14.405,16.808-11.707,27.611    c-0.598,0.601-1.2,1.201-1.498,1.801c-0.301,0-0.899,0-1.2,0.299c-3.603,0.901-6.603,3.002-9.005,6.004h-0.301    c-0.297,0-0.297,0.299-0.599,0.299c-4.2-3.601-10.205-5.103-15.606-3.601c-0.301,0-0.603,0-0.899,0.299    c-1.804-1.201-3.603-1.801-5.401-2.402c-0.302-0.299-0.302-0.299-0.302-0.299c-1.201,0-2.401,0-3.603,0    c-1.498,0-3.301,0-5.101,0.299c-0.301-0.6-1.2-0.899-2.1-0.6c0,0-0.301,0-0.603,0c-1.799-2.101-3.899-3.902-6.603-4.801    c-0.301,0-0.301,0-0.598,0c-0.599,0-1.201,0-1.502,0c-1.799,0-3.301,0-4.803,0.6c-0.297,0-0.297-0.299-0.598-0.299    c-0.599-0.601-1.201-0.601-2.101-0.301c-2.699-2.101-5.703-3.601-8.703-4.502h-0.301c-1.201-0.299-2.699-0.299-3.904-0.299    c-8.703,0-16.804,4.502-21.306,11.404c-0.301,0-0.301,0-0.603,0c-1.498-0.299-3-0.299-4.502,0    c-1.498-2.402-3.899-4.201-6.603-5.103c-2.101-0.299-4.201-0.299-6.301,0.301c-2.703-3.002-6.301-4.801-10.502-4.801    c-0.904,0-1.502,0-2.101,0c-0.301,0-0.301,0-0.301,0c-2.101,0.598-3.899,1.799-5.402,3c-0.598,0-0.899,0.301-1.502,0.301    c-2.401-1.502-5.401-2.103-8.402-2.103c-0.903,0-1.799,0-2.703,0c0,0,0,0-0.301,0c-4.799,1.502-8.703,5.103-10.502,9.904    c-0.301,0-0.301,0-0.301,0c-6.603,0-12.603,2.401-17.406,6.604c-4.201-2.703-9.306-4.203-14.406-4.203    c-14.406,0-26.109,11.705-26.109,26.111c0,7.804,3.603,15.306,9.904,20.41c-3.004,3.599-4.502,8.101-4.502,12.904    c0,2.699,0.301,5.101,1.201,7.502c-1.201,3-2.1,6-2.1,9.301c0,9.306,6.301,17.707,15.305,20.41c0,0,0,0,0.297,0    c0.904,0.301,2.101,0.301,3.004,0.301c1.799,0,3.301-0.301,4.803-0.602c0.599,0.602,1.498,0.899,2.101,0.899    c0.301-0.298,0.301-0.298,0.599-0.298c1.803,2.101,3.903,3.599,6.305,4.503c0.297,0.297,0.297,0.297,0.598,0.297    c0.599,0,0.9,0,1.502,0c1.498,0,3-0.297,4.502-0.599c0,0,0.297,0,0.297,0.302c0.599,0.297,1.502,0.598,2.101,0.297    c0,0,0,0,0.301,0c2.402,1.803,5.101,3.301,8.104,3.903c0,0.302,0,0.302,0.301,0.302c1.197,0,2.397,0.297,3.599,0.297    c11.104,0,20.41-7.201,23.41-17.707c1.502,0.301,3,0.603,4.502,0.603c1.201,0,2.397,0,3.899-0.302c3-0.899,5.703-2.401,8.104-4.2    c0.301,0,0.301,0,0.301,0c0.599,0.301,1.498,0,2.101-0.302l0.301-0.301c1.498,0.301,3,0.603,4.502,0.603c0.599,0,0.896,0,1.498,0    c0.301,0,0.301,0,0.603,0c2.401-0.899,4.799-2.703,6.301-4.804c0.301,0.302,0.301,0.302,0.598,0.302    c0.599,0,1.502-0.302,2.104-0.9c1.498,0.599,2.996,0.599,4.799,0.599c0.899,0,2.101,0,3-0.301c0.301,0,0.301,0,0.301,0    c9.004-2.699,15.306-10.804,15.306-20.406c0-1.799-0.301-3.603-0.603-5.104c1.205,0,2.401,0.301,3.606,0.301    c5.101,0,10.201-1.799,14.402-4.502c0.301,0,0.301,0,0.301,0.301c0.603,0.602,1.799,0.602,2.703,0.301    c2.402,2.402,5.699,4.502,9,5.402h0.301c1.201,0.297,2.401,0.297,3.302,0.297c7.205,0,13.506-3.297,17.707-8.703    c3.603,1.502,7.205,1.502,11.104,0.603c4.502-1.201,8.401-4.502,10.506-8.703c2.699,0.9,5.699,0.9,8.402,0.301    c1.502-0.301,3-0.904,4.2-1.799c0.899,0,2.101,0,3,0c7.804,13.502,25.214,18.302,38.716,10.502    c5.703-3.301,9.903-8.104,12.306-14.109c0.899-0.598,1.803-0.896,2.702-1.498c6.001-3.603,10.804-9.004,13.205-15.606    c0.298-0.299,0.9-0.299,1.201-0.601c0.899-0.601,1.498-0.899,2.101-1.201c9.301,5.103,20.707,4.803,30.013-0.601    C430.067,196.577,435.172,177.669,426.766,162.964z M414.163,203.18c-9.306,5.402-20.41,4.801-29.113-0.301    c-0.899,0.6-1.799,1.201-2.702,1.801c-0.9,0.299-1.498,0.9-2.397,1.201c-1.804,6.301-6.005,11.705-12.306,15.308    c-0.899,0.598-2.101,0.896-3.302,1.498c-2.101,5.703-6.004,10.804-11.405,13.808c-12.603,7.201-28.812,3-36.013-9.606    c-0.302-0.301-0.302-0.599-0.603-1.197c-1.498,0.297-3.302,0.297-4.799,0c-1.201,0.896-2.703,1.498-4.205,2.1    c-3,0.599-6.302,0.301-9-1.205c-1.201,4.502-5.104,8.108-9.904,9.606c-3.903,0.9-7.803,0.301-11.104-1.498    c-3.603,5.699-9.903,9.599-17.108,9.599c-0.9,0-1.8-0.297-3-0.297c-3.603-1.201-6.904-3.301-9.302-6.305    c-0.603,0.301-0.904,0.603-1.506,0.904c-0.297-0.603-0.896-0.904-1.498-1.502c-3.9,3.301-9.306,5.1-14.703,5.1    c-1.502,0-2.703,0-3.904-0.297c-1.103-0.277-2.202-0.786-3.301-1.104v0.204v0.301l0.301,0.297v0.301v0.297h0.301v0.301v0.301    h0.297v0.301v0.301v0.297h0.301v0.301v0.297v0.301v0.301h0.297v0.301v0.301v0.297v0.301l0.301,0.297v0.301v0.301v0.301v0.301    v0.301v0.297v0.301v0.297v0.301v0.301V250v0.297v0.301v0.599v0.301v0.301v0.301v0.598l-0.301,0.297v0.301v0.603l-0.297,0.301    v0.301v0.297l-0.301,0.598v0.301V256l-0.297,0.301v0.297l-0.301,0.301v0.603l-0.301,0.297v0.302l-0.301,0.301l-0.301,0.302V259    l-0.301,0.301l-0.297,0.302v0.297l-0.297,0.302l-0.301,0.301v0.302l-0.301,0.297l-0.301,0.301l-0.301,0.302l-0.301,0.301v0.298    l-0.297,0.301l-0.301,0.301l-0.297,0.298l-0.301,0.301l-0.301,0.302h-0.301l-0.301,0.301l-0.297,0.297l-0.301,0.302h-0.297    l-0.301,0.301l-0.301,0.302l-0.301,0.297h-0.301l-0.301,0.301l-0.297,0.302h-0.301l-0.297,0.297h-0.301l-0.301,0.302h-0.603    l-0.297,0.301h-0.301l-0.297,0.302h-0.301l-0.603,0.297h-0.301c-0.896,0-1.799,0.301-2.699,0.301h-0.301h-0.297h-0.301h-0.301    h-0.301l-0.301-0.301h-0.297h-0.301h-0.297h-0.301h-0.301h-0.301l-0.301-0.297h-0.297h-0.301h-0.297h-0.301v-0.302h-0.301h-0.301    c-0.301,0.302-0.603,0.599-0.9,0.899c-0.598,0-1.201-0.301-1.803-0.301c-1.498,2.101-3.599,3.903-6.301,4.803    c-0.301,0.302-0.899,0.302-1.197,0.302c-1.803,0-3.305-0.603-4.803-1.201c-0.603,0.302-0.904,0.899-1.502,1.201    c-0.297-0.302-0.9-0.302-1.201-0.603l-0.301,0.301l-0.301,0.302h-0.297v0.297h-0.297v0.302h-0.301l-0.301,0.301h-0.301v0.302    h-0.301l-0.301,0.297h-0.297v0.301h-0.301l-0.297,0.302h-0.301l-0.301,0.301h-0.301v0.297h-0.301h-0.297v0.302h-0.301h-0.297    l-0.301,0.301h-0.301h-0.301v0.302h-0.301h-0.301h-0.297v0.297h-0.301h-0.297h-0.301c-0.904,0.302-2.101,0.302-3.301,0.302    c-2.104,0-4.205-0.302-6.306-0.9v0.599l-0.297,0.302v0.598v0.603l-0.301,0.302v0.598l-0.297,0.302v0.599l-0.301,0.301    l-0.301,0.599v0.301l-0.301,0.302l-0.301,0.598v0.302l-0.301,0.603l-0.297,0.297l-0.301,0.302v0.598l-0.297,0.302l-0.301,0.301    l-0.301,0.302l-0.301,0.598l-0.301,0.302l-0.297,0.297l-0.301,0.302l-0.297,0.602l-0.301,0.298l-0.301,0.301l-0.301,0.302    l-0.301,0.301l-0.598,0.297l-0.297,0.302l-0.301,0.301l-0.301,0.302l-0.301,0.297l-0.603,0.301l-0.297,0.302l-0.301,0.297h-0.598    l-0.301,0.302l-0.301,0.301l-0.598,0.302h-0.301l-0.297,0.297l-0.603,0.301h-0.301l-0.598,0.302l-0.301,0.301h-0.599l-0.301,0.298    h-0.603l-0.301,0.301h-0.599h-0.297l-0.603,0.301h-0.603h-0.297h-0.599l-0.301,0.298h-0.603h-0.602h-0.297h-0.598h-0.603    c-1.201,0-2.101,0-3.301-0.298c-3.301-0.899-6.004-2.401-8.406-4.502h-0.297v0.302h-0.301h-0.297h-0.301h-0.301h-0.301v-0.302    h-0.301v-0.301h-0.297v-0.302h-0.301h-0.297v0.302h-0.301h-0.301l-0.301,0.301h-0.301h-0.297h-0.301v0.302h-0.297h-0.301h-0.301    h-0.301h-0.301h-0.301h-0.297h-0.301h-0.297h-0.301h-0.301h-0.301h-0.301c-2.699-0.904-4.799-2.703-6.301-4.804    c-0.598,0-1.197,0.302-1.799,0.302c-0.301-0.302-0.603-0.603-0.899-0.904c-1.803,0.302-3.603,0.904-5.703,0.904h-0.301v-0.302    h-0.301h-0.301h-0.297h-0.297h-0.301h-0.301h-0.301h-0.301c-7.799-2.401-13.506-9.603-13.506-18.31c0-3.301,0.904-6.301,2.402-9    l-0.301-0.301v-0.302v-0.301h-0.297v-0.297V256v-0.301h-0.301v-0.301v-0.297v-0.301h-0.297v-0.297v-0.301v-0.301v-0.301h-0.301    v-0.301v-0.301v-0.297v-0.301v-0.297v-0.301v-0.301h-0.301v-0.301v-0.301v-0.297v-0.301V250v-0.301    c0-5.104,2.401-9.908,5.703-13.506c-6.603-4.201-10.807-11.406-10.807-19.808v-0.603v-0.899v-0.598v-0.601v-0.601l0.301-0.6    v-0.301v-0.601l0.301-0.598v-0.601l0.301-0.601v-0.6l0.301-0.601v-0.601l0.301-0.6l0.297-0.299l0.301-0.601v-0.6l0.297-0.601    l0.301-0.301l0.301-0.598l0.301-0.601l0.301-0.301l0.297-0.6l0.301-0.299l0.297-0.601l0.603-0.301l0.301-0.598l0.301-0.301    l0.297-0.601l0.599-0.299l0.301-0.6l0.301-0.301l0.603-0.299l0.301-0.301l0.599-0.598l0.297-0.301l0.603-0.299l0.301-0.301    l0.598-0.299l0.301-0.301l0.599-0.299l0.603-0.301l0.301-0.299l0.598-0.301l0.599-0.299l0.301-0.299l0.603-0.301h0.599    l0.598-0.299l0.603-0.301h0.301l0.598-0.299h0.599l0.603-0.301h0.603l0.598-0.299h0.598h0.603h0.603l0.599-0.301h0.598h0.603    h0.598h0.301h0.297h0.301h0.301h0.301h0.301h0.301l0.297,0.301h0.301h0.297h0.301h0.301h0.301h0.301l0.297,0.299h0.301h0.297    h0.301l0.301,0.301h0.301h0.301h0.297l0.301,0.299h0.297h0.301l0.301,0.301h0.301h0.301l0.301,0.299h0.297h0.301v0.301h0.297    h0.301l0.301,0.299h0.301l0.301,0.299h0.297l0.301,0.301h0.297v0.299h0.301h0.301v0.301h0.301l0.301,0.299h0.297v0.301h0.301    l0.297,0.299h0.301v0.301h0.301l0.301,0.299c4.201-4.502,10.201-7.203,17.105-7.203h0.301h0.301h0.301h0.301h0.595    c1.205-4.801,5.104-8.703,9.606-9.904c0.899-0.299,1.799-0.299,2.401-0.299c3.301,0,6.302,1.199,8.703,3    c0.301-0.299,0.603-0.601,0.899-0.9c0.301,0.299,0.599,0.299,0.599,0.601c1.502-1.801,3.606-3.002,5.707-3.603    c0.598-0.299,1.197-0.299,1.799-0.299c4.201,0,7.799,2.4,9.904,5.701c1.799-1.199,4.201-1.5,6.301-0.9    c3,0.601,5.1,3.002,6.004,5.703c1.498-0.902,3.297-1.201,5.101-0.902c0.899,0.301,1.502,0.601,2.1,0.902    c3.904-7.203,11.406-12.006,20.406-12.006c1.205,0,2.401,0,3.606,0.301c3.297,0.899,6.301,2.402,8.703,4.801    c0.598-0.299,0.896-0.299,1.498-0.601c0.301,0.301,0.903,0.902,1.201,1.201c1.803-0.9,3.603-1.201,5.401-1.201    c0.301,0,0.904,0,1.201,0c2.699,1.201,5.1,3.002,6.603,5.404c0.598-0.301,1.201-0.301,2.1-0.6c0.302,0.6,0.603,0.899,0.603,1.199    c2.101-0.599,3.899-0.9,6-0.9c1.201,0,2.101,0,3.302,0.301c2.101,0.599,3.903,1.5,5.702,2.701c0.599-0.301,1.201-0.301,1.8-0.601    c5.401-1.502,10.808,0.299,14.405,3.902c0.603,0,1.201-0.301,1.804-0.301c0.297-0.299,0.599-0.299,1.201-0.299    c1.799-3.002,4.502-5.103,8.101-6.002c0.602,0,1.2-0.301,1.803-0.301c0.899-1.201,1.799-2.402,3-3    c-0.301-0.601-0.603-0.902-0.603-1.502c-2.397-9.603,1.804-19.807,10.808-24.908c3.301-2.103,7.201-3.002,10.804-3.301    c1.799-2.402,4.2-4.502,6.903-6.004c5.699-3.301,12.004-3.901,17.406-2.399c0.598-9.303,5.703-18.308,14.405-23.41    c13.804-7.803,31.214-3,39.013,10.504c3.302,5.703,4.502,12.305,3.603,18.308c7.205,1.801,13.808,6.303,17.707,13.504    C432.77,177.669,427.967,195.075,414.163,203.18z" fill="#4E5A62"/><path d="M222.686,240.694c0.098,0.024,0.204,0.073,0.301,0.098v-0.098H222.686z" fill="#4E5A62"/></g></g></svg>